<mxfile host="app.diagrams.net" modified="2024-03-29T05:34:45.022Z" agent="Mozilla/5.0 (Windows NT 10.0; Win64; x64) AppleWebKit/537.36 (KHTML, like Gecko) Chrome/123.0.0.0 Safari/537.36" etag="xevsJE__-5RI-i6S8KIu" version="24.2.1" type="device">
  <diagram name="Page-1" id="lrnhZ18yAxOlxMVJO94z">
    <mxGraphModel dx="3463" dy="454" grid="1" gridSize="10" guides="1" tooltips="1" connect="1" arrows="1" fold="1" page="1" pageScale="1" pageWidth="850" pageHeight="1100" math="0" shadow="0">
      <root>
        <mxCell id="0" />
        <mxCell id="1" parent="0" />
        <mxCell id="Ho__UGd---1bnU0P5M20-4" value="DIM_DATE" style="shape=table;startSize=30;container=1;collapsible=1;childLayout=tableLayout;fixedRows=1;rowLines=0;fontStyle=1;align=center;resizeLast=1;html=1;" vertex="1" parent="1">
          <mxGeometry x="-50" y="65" width="180" height="90" as="geometry" />
        </mxCell>
        <mxCell id="Ho__UGd---1bnU0P5M20-5" value="" style="shape=tableRow;horizontal=0;startSize=0;swimlaneHead=0;swimlaneBody=0;fillColor=none;collapsible=0;dropTarget=0;points=[[0,0.5],[1,0.5]];portConstraint=eastwest;top=0;left=0;right=0;bottom=1;" vertex="1" parent="Ho__UGd---1bnU0P5M20-4">
          <mxGeometry y="30" width="180" height="30" as="geometry" />
        </mxCell>
        <mxCell id="Ho__UGd---1bnU0P5M20-6" value="PK" style="shape=partialRectangle;connectable=0;fillColor=none;top=0;left=0;bottom=0;right=0;fontStyle=1;overflow=hidden;whiteSpace=wrap;html=1;" vertex="1" parent="Ho__UGd---1bnU0P5M20-5">
          <mxGeometry width="50" height="30" as="geometry">
            <mxRectangle width="50" height="30" as="alternateBounds" />
          </mxGeometry>
        </mxCell>
        <mxCell id="Ho__UGd---1bnU0P5M20-7" value="DateKey" style="shape=partialRectangle;connectable=0;fillColor=none;top=0;left=0;bottom=0;right=0;align=left;spacingLeft=6;fontStyle=5;overflow=hidden;whiteSpace=wrap;html=1;" vertex="1" parent="Ho__UGd---1bnU0P5M20-5">
          <mxGeometry x="50" width="130" height="30" as="geometry">
            <mxRectangle width="130" height="30" as="alternateBounds" />
          </mxGeometry>
        </mxCell>
        <mxCell id="Ho__UGd---1bnU0P5M20-8" value="" style="shape=tableRow;horizontal=0;startSize=0;swimlaneHead=0;swimlaneBody=0;fillColor=none;collapsible=0;dropTarget=0;points=[[0,0.5],[1,0.5]];portConstraint=eastwest;top=0;left=0;right=0;bottom=0;" vertex="1" parent="Ho__UGd---1bnU0P5M20-4">
          <mxGeometry y="60" width="180" height="30" as="geometry" />
        </mxCell>
        <mxCell id="Ho__UGd---1bnU0P5M20-9" value="" style="shape=partialRectangle;connectable=0;fillColor=none;top=0;left=0;bottom=0;right=0;editable=1;overflow=hidden;whiteSpace=wrap;html=1;" vertex="1" parent="Ho__UGd---1bnU0P5M20-8">
          <mxGeometry width="50" height="30" as="geometry">
            <mxRectangle width="50" height="30" as="alternateBounds" />
          </mxGeometry>
        </mxCell>
        <mxCell id="Ho__UGd---1bnU0P5M20-10" value="Date" style="shape=partialRectangle;connectable=0;fillColor=none;top=0;left=0;bottom=0;right=0;align=left;spacingLeft=6;overflow=hidden;whiteSpace=wrap;html=1;" vertex="1" parent="Ho__UGd---1bnU0P5M20-8">
          <mxGeometry x="50" width="130" height="30" as="geometry">
            <mxRectangle width="130" height="30" as="alternateBounds" />
          </mxGeometry>
        </mxCell>
        <mxCell id="Ho__UGd---1bnU0P5M20-24" value="FACT_MEAL_PURCHASES" style="shape=table;startSize=30;container=1;collapsible=1;childLayout=tableLayout;fixedRows=1;rowLines=0;fontStyle=1;align=center;resizeLast=1;html=1;strokeColor=default;" vertex="1" parent="1">
          <mxGeometry x="210" y="100" width="180" height="120" as="geometry" />
        </mxCell>
        <mxCell id="Ho__UGd---1bnU0P5M20-25" value="" style="shape=tableRow;horizontal=0;startSize=0;swimlaneHead=0;swimlaneBody=0;fillColor=none;collapsible=0;dropTarget=0;points=[[0,0.5],[1,0.5]];portConstraint=eastwest;top=0;left=0;right=0;bottom=0;strokeColor=inherit;swimlaneLine=0;" vertex="1" parent="Ho__UGd---1bnU0P5M20-24">
          <mxGeometry y="30" width="180" height="20" as="geometry" />
        </mxCell>
        <mxCell id="Ho__UGd---1bnU0P5M20-26" value="PK,FK" style="shape=partialRectangle;connectable=0;fillColor=none;top=0;left=0;bottom=0;right=0;fontStyle=1;overflow=hidden;whiteSpace=wrap;html=1;strokeColor=inherit;" vertex="1" parent="Ho__UGd---1bnU0P5M20-25">
          <mxGeometry width="60" height="20" as="geometry">
            <mxRectangle width="60" height="20" as="alternateBounds" />
          </mxGeometry>
        </mxCell>
        <mxCell id="Ho__UGd---1bnU0P5M20-27" value="DateKey" style="shape=partialRectangle;connectable=0;fillColor=none;top=0;left=0;bottom=0;right=0;align=left;spacingLeft=6;fontStyle=5;overflow=hidden;whiteSpace=wrap;html=1;strokeColor=inherit;allowArrows=1;" vertex="1" parent="Ho__UGd---1bnU0P5M20-25">
          <mxGeometry x="60" width="120" height="20" as="geometry">
            <mxRectangle width="120" height="20" as="alternateBounds" />
          </mxGeometry>
        </mxCell>
        <mxCell id="Ho__UGd---1bnU0P5M20-67" value="" style="shape=tableRow;horizontal=0;startSize=0;swimlaneHead=0;swimlaneBody=0;fillColor=none;collapsible=0;dropTarget=0;points=[[0,0.5],[1,0.5]];portConstraint=eastwest;top=0;left=0;right=0;bottom=0;strokeColor=inherit;swimlaneLine=0;" vertex="1" parent="Ho__UGd---1bnU0P5M20-24">
          <mxGeometry y="50" width="180" height="20" as="geometry" />
        </mxCell>
        <mxCell id="Ho__UGd---1bnU0P5M20-68" value="PK,FK" style="shape=partialRectangle;connectable=0;fillColor=none;top=0;left=0;bottom=0;right=0;fontStyle=1;overflow=hidden;whiteSpace=wrap;html=1;strokeColor=inherit;" vertex="1" parent="Ho__UGd---1bnU0P5M20-67">
          <mxGeometry width="60" height="20" as="geometry">
            <mxRectangle width="60" height="20" as="alternateBounds" />
          </mxGeometry>
        </mxCell>
        <mxCell id="Ho__UGd---1bnU0P5M20-69" value="StudentKey" style="shape=partialRectangle;connectable=0;fillColor=none;top=0;left=0;bottom=0;right=0;align=left;spacingLeft=6;fontStyle=5;overflow=hidden;whiteSpace=wrap;html=1;strokeColor=inherit;allowArrows=1;" vertex="1" parent="Ho__UGd---1bnU0P5M20-67">
          <mxGeometry x="60" width="120" height="20" as="geometry">
            <mxRectangle width="120" height="20" as="alternateBounds" />
          </mxGeometry>
        </mxCell>
        <mxCell id="Ho__UGd---1bnU0P5M20-64" value="" style="shape=tableRow;horizontal=0;startSize=0;swimlaneHead=0;swimlaneBody=0;fillColor=none;collapsible=0;dropTarget=0;points=[[0,0.5],[1,0.5]];portConstraint=eastwest;top=0;left=0;right=0;bottom=1;strokeColor=inherit;swimlaneLine=0;" vertex="1" parent="Ho__UGd---1bnU0P5M20-24">
          <mxGeometry y="70" width="180" height="20" as="geometry" />
        </mxCell>
        <mxCell id="Ho__UGd---1bnU0P5M20-65" value="PK,FK" style="shape=partialRectangle;connectable=0;fillColor=none;top=0;left=0;bottom=0;right=0;fontStyle=1;overflow=hidden;whiteSpace=wrap;html=1;strokeColor=inherit;" vertex="1" parent="Ho__UGd---1bnU0P5M20-64">
          <mxGeometry width="60" height="20" as="geometry">
            <mxRectangle width="60" height="20" as="alternateBounds" />
          </mxGeometry>
        </mxCell>
        <mxCell id="Ho__UGd---1bnU0P5M20-66" value="LocationKey" style="shape=partialRectangle;connectable=0;fillColor=none;top=0;left=0;bottom=0;right=0;align=left;spacingLeft=6;fontStyle=5;overflow=hidden;whiteSpace=wrap;html=1;strokeColor=inherit;allowArrows=1;" vertex="1" parent="Ho__UGd---1bnU0P5M20-64">
          <mxGeometry x="60" width="120" height="20" as="geometry">
            <mxRectangle width="120" height="20" as="alternateBounds" />
          </mxGeometry>
        </mxCell>
        <mxCell id="Ho__UGd---1bnU0P5M20-28" value="" style="shape=tableRow;horizontal=0;startSize=0;swimlaneHead=0;swimlaneBody=0;fillColor=none;collapsible=0;dropTarget=0;points=[[0,0.5],[1,0.5]];portConstraint=eastwest;top=0;left=0;right=0;bottom=0;" vertex="1" parent="Ho__UGd---1bnU0P5M20-24">
          <mxGeometry y="90" width="180" height="30" as="geometry" />
        </mxCell>
        <mxCell id="Ho__UGd---1bnU0P5M20-29" value="" style="shape=partialRectangle;connectable=0;fillColor=none;top=0;left=0;bottom=0;right=0;editable=1;overflow=hidden;whiteSpace=wrap;html=1;" vertex="1" parent="Ho__UGd---1bnU0P5M20-28">
          <mxGeometry width="60" height="30" as="geometry">
            <mxRectangle width="60" height="30" as="alternateBounds" />
          </mxGeometry>
        </mxCell>
        <mxCell id="Ho__UGd---1bnU0P5M20-30" value="Amount" style="shape=partialRectangle;connectable=0;fillColor=none;top=0;left=0;bottom=0;right=0;align=left;spacingLeft=6;overflow=hidden;whiteSpace=wrap;html=1;" vertex="1" parent="Ho__UGd---1bnU0P5M20-28">
          <mxGeometry x="60" width="120" height="30" as="geometry">
            <mxRectangle width="120" height="30" as="alternateBounds" />
          </mxGeometry>
        </mxCell>
        <mxCell id="Ho__UGd---1bnU0P5M20-70" style="rounded=0;orthogonalLoop=1;jettySize=auto;html=1;exitX=1;exitY=0.5;exitDx=0;exitDy=0;entryX=0;entryY=0.5;entryDx=0;entryDy=0;endArrow=none;endFill=0;" edge="1" parent="1" source="Ho__UGd---1bnU0P5M20-5" target="Ho__UGd---1bnU0P5M20-25">
          <mxGeometry relative="1" as="geometry" />
        </mxCell>
        <mxCell id="Ho__UGd---1bnU0P5M20-71" value="DIM_STUDENTS" style="shape=table;startSize=30;container=1;collapsible=1;childLayout=tableLayout;fixedRows=1;rowLines=0;fontStyle=1;align=center;resizeLast=1;html=1;" vertex="1" parent="1">
          <mxGeometry x="510" y="90" width="180" height="120" as="geometry" />
        </mxCell>
        <mxCell id="Ho__UGd---1bnU0P5M20-72" value="" style="shape=tableRow;horizontal=0;startSize=0;swimlaneHead=0;swimlaneBody=0;fillColor=none;collapsible=0;dropTarget=0;points=[[0,0.5],[1,0.5]];portConstraint=eastwest;top=0;left=0;right=0;bottom=1;" vertex="1" parent="Ho__UGd---1bnU0P5M20-71">
          <mxGeometry y="30" width="180" height="30" as="geometry" />
        </mxCell>
        <mxCell id="Ho__UGd---1bnU0P5M20-73" value="PK" style="shape=partialRectangle;connectable=0;fillColor=none;top=0;left=0;bottom=0;right=0;fontStyle=1;overflow=hidden;whiteSpace=wrap;html=1;" vertex="1" parent="Ho__UGd---1bnU0P5M20-72">
          <mxGeometry width="50" height="30" as="geometry">
            <mxRectangle width="50" height="30" as="alternateBounds" />
          </mxGeometry>
        </mxCell>
        <mxCell id="Ho__UGd---1bnU0P5M20-74" value="StudentKey" style="shape=partialRectangle;connectable=0;fillColor=none;top=0;left=0;bottom=0;right=0;align=left;spacingLeft=6;fontStyle=5;overflow=hidden;whiteSpace=wrap;html=1;" vertex="1" parent="Ho__UGd---1bnU0P5M20-72">
          <mxGeometry x="50" width="130" height="30" as="geometry">
            <mxRectangle width="130" height="30" as="alternateBounds" />
          </mxGeometry>
        </mxCell>
        <mxCell id="Ho__UGd---1bnU0P5M20-75" value="" style="shape=tableRow;horizontal=0;startSize=0;swimlaneHead=0;swimlaneBody=0;fillColor=none;collapsible=0;dropTarget=0;points=[[0,0.5],[1,0.5]];portConstraint=eastwest;top=0;left=0;right=0;bottom=0;" vertex="1" parent="Ho__UGd---1bnU0P5M20-71">
          <mxGeometry y="60" width="180" height="20" as="geometry" />
        </mxCell>
        <mxCell id="Ho__UGd---1bnU0P5M20-76" value="" style="shape=partialRectangle;connectable=0;fillColor=none;top=0;left=0;bottom=0;right=0;editable=1;overflow=hidden;whiteSpace=wrap;html=1;" vertex="1" parent="Ho__UGd---1bnU0P5M20-75">
          <mxGeometry width="50" height="20" as="geometry">
            <mxRectangle width="50" height="20" as="alternateBounds" />
          </mxGeometry>
        </mxCell>
        <mxCell id="Ho__UGd---1bnU0P5M20-77" value="StudentID" style="shape=partialRectangle;connectable=0;fillColor=none;top=0;left=0;bottom=0;right=0;align=left;spacingLeft=6;overflow=hidden;whiteSpace=wrap;html=1;" vertex="1" parent="Ho__UGd---1bnU0P5M20-75">
          <mxGeometry x="50" width="130" height="20" as="geometry">
            <mxRectangle width="130" height="20" as="alternateBounds" />
          </mxGeometry>
        </mxCell>
        <mxCell id="Ho__UGd---1bnU0P5M20-78" value="" style="shape=tableRow;horizontal=0;startSize=0;swimlaneHead=0;swimlaneBody=0;fillColor=none;collapsible=0;dropTarget=0;points=[[0,0.5],[1,0.5]];portConstraint=eastwest;top=0;left=0;right=0;bottom=0;" vertex="1" parent="Ho__UGd---1bnU0P5M20-71">
          <mxGeometry y="80" width="180" height="20" as="geometry" />
        </mxCell>
        <mxCell id="Ho__UGd---1bnU0P5M20-79" value="" style="shape=partialRectangle;connectable=0;fillColor=none;top=0;left=0;bottom=0;right=0;editable=1;overflow=hidden;whiteSpace=wrap;html=1;" vertex="1" parent="Ho__UGd---1bnU0P5M20-78">
          <mxGeometry width="50" height="20" as="geometry">
            <mxRectangle width="50" height="20" as="alternateBounds" />
          </mxGeometry>
        </mxCell>
        <mxCell id="Ho__UGd---1bnU0P5M20-80" value="FirstName" style="shape=partialRectangle;connectable=0;fillColor=none;top=0;left=0;bottom=0;right=0;align=left;spacingLeft=6;overflow=hidden;whiteSpace=wrap;html=1;" vertex="1" parent="Ho__UGd---1bnU0P5M20-78">
          <mxGeometry x="50" width="130" height="20" as="geometry">
            <mxRectangle width="130" height="20" as="alternateBounds" />
          </mxGeometry>
        </mxCell>
        <mxCell id="Ho__UGd---1bnU0P5M20-81" value="" style="shape=tableRow;horizontal=0;startSize=0;swimlaneHead=0;swimlaneBody=0;fillColor=none;collapsible=0;dropTarget=0;points=[[0,0.5],[1,0.5]];portConstraint=eastwest;top=0;left=0;right=0;bottom=0;" vertex="1" parent="Ho__UGd---1bnU0P5M20-71">
          <mxGeometry y="100" width="180" height="20" as="geometry" />
        </mxCell>
        <mxCell id="Ho__UGd---1bnU0P5M20-82" value="" style="shape=partialRectangle;connectable=0;fillColor=none;top=0;left=0;bottom=0;right=0;editable=1;overflow=hidden;whiteSpace=wrap;html=1;" vertex="1" parent="Ho__UGd---1bnU0P5M20-81">
          <mxGeometry width="50" height="20" as="geometry">
            <mxRectangle width="50" height="20" as="alternateBounds" />
          </mxGeometry>
        </mxCell>
        <mxCell id="Ho__UGd---1bnU0P5M20-83" value="LastName" style="shape=partialRectangle;connectable=0;fillColor=none;top=0;left=0;bottom=0;right=0;align=left;spacingLeft=6;overflow=hidden;whiteSpace=wrap;html=1;" vertex="1" parent="Ho__UGd---1bnU0P5M20-81">
          <mxGeometry x="50" width="130" height="20" as="geometry">
            <mxRectangle width="130" height="20" as="alternateBounds" />
          </mxGeometry>
        </mxCell>
        <mxCell id="Ho__UGd---1bnU0P5M20-84" style="edgeStyle=none;rounded=0;orthogonalLoop=1;jettySize=auto;html=1;entryX=0;entryY=0.5;entryDx=0;entryDy=0;endArrow=none;endFill=0;exitX=1;exitY=0.5;exitDx=0;exitDy=0;" edge="1" parent="1" source="Ho__UGd---1bnU0P5M20-67" target="Ho__UGd---1bnU0P5M20-72">
          <mxGeometry relative="1" as="geometry">
            <Array as="points" />
          </mxGeometry>
        </mxCell>
        <mxCell id="Ho__UGd---1bnU0P5M20-85" value="DIM_LOCATION" style="shape=table;startSize=30;container=1;collapsible=1;childLayout=tableLayout;fixedRows=1;rowLines=0;fontStyle=1;align=center;resizeLast=1;html=1;" vertex="1" parent="1">
          <mxGeometry x="-50" y="190" width="180" height="90" as="geometry" />
        </mxCell>
        <mxCell id="Ho__UGd---1bnU0P5M20-86" value="" style="shape=tableRow;horizontal=0;startSize=0;swimlaneHead=0;swimlaneBody=0;fillColor=none;collapsible=0;dropTarget=0;points=[[0,0.5],[1,0.5]];portConstraint=eastwest;top=0;left=0;right=0;bottom=1;" vertex="1" parent="Ho__UGd---1bnU0P5M20-85">
          <mxGeometry y="30" width="180" height="30" as="geometry" />
        </mxCell>
        <mxCell id="Ho__UGd---1bnU0P5M20-87" value="PK" style="shape=partialRectangle;connectable=0;fillColor=none;top=0;left=0;bottom=0;right=0;fontStyle=1;overflow=hidden;whiteSpace=wrap;html=1;" vertex="1" parent="Ho__UGd---1bnU0P5M20-86">
          <mxGeometry width="50" height="30" as="geometry">
            <mxRectangle width="50" height="30" as="alternateBounds" />
          </mxGeometry>
        </mxCell>
        <mxCell id="Ho__UGd---1bnU0P5M20-88" value="LocationKey" style="shape=partialRectangle;connectable=0;fillColor=none;top=0;left=0;bottom=0;right=0;align=left;spacingLeft=6;fontStyle=5;overflow=hidden;whiteSpace=wrap;html=1;" vertex="1" parent="Ho__UGd---1bnU0P5M20-86">
          <mxGeometry x="50" width="130" height="30" as="geometry">
            <mxRectangle width="130" height="30" as="alternateBounds" />
          </mxGeometry>
        </mxCell>
        <mxCell id="Ho__UGd---1bnU0P5M20-89" value="" style="shape=tableRow;horizontal=0;startSize=0;swimlaneHead=0;swimlaneBody=0;fillColor=none;collapsible=0;dropTarget=0;points=[[0,0.5],[1,0.5]];portConstraint=eastwest;top=0;left=0;right=0;bottom=0;" vertex="1" parent="Ho__UGd---1bnU0P5M20-85">
          <mxGeometry y="60" width="180" height="30" as="geometry" />
        </mxCell>
        <mxCell id="Ho__UGd---1bnU0P5M20-90" value="" style="shape=partialRectangle;connectable=0;fillColor=none;top=0;left=0;bottom=0;right=0;editable=1;overflow=hidden;whiteSpace=wrap;html=1;" vertex="1" parent="Ho__UGd---1bnU0P5M20-89">
          <mxGeometry width="50" height="30" as="geometry">
            <mxRectangle width="50" height="30" as="alternateBounds" />
          </mxGeometry>
        </mxCell>
        <mxCell id="Ho__UGd---1bnU0P5M20-91" value="Adress" style="shape=partialRectangle;connectable=0;fillColor=none;top=0;left=0;bottom=0;right=0;align=left;spacingLeft=6;overflow=hidden;whiteSpace=wrap;html=1;" vertex="1" parent="Ho__UGd---1bnU0P5M20-89">
          <mxGeometry x="50" width="130" height="30" as="geometry">
            <mxRectangle width="130" height="30" as="alternateBounds" />
          </mxGeometry>
        </mxCell>
        <mxCell id="Ho__UGd---1bnU0P5M20-92" style="edgeStyle=none;rounded=0;orthogonalLoop=1;jettySize=auto;html=1;entryX=0;entryY=0.5;entryDx=0;entryDy=0;exitX=1;exitY=0.5;exitDx=0;exitDy=0;endArrow=none;endFill=0;" edge="1" parent="1" source="Ho__UGd---1bnU0P5M20-86" target="Ho__UGd---1bnU0P5M20-64">
          <mxGeometry relative="1" as="geometry" />
        </mxCell>
        <mxCell id="Ho__UGd---1bnU0P5M20-94" value="FACT_PUBLICATION_STATUS_SNAPSHOT" style="shape=table;startSize=30;container=1;collapsible=1;childLayout=tableLayout;fixedRows=1;rowLines=0;fontStyle=1;align=center;resizeLast=1;html=1;strokeColor=default;" vertex="1" parent="1">
          <mxGeometry x="130" y="460" width="280" height="120" as="geometry" />
        </mxCell>
        <mxCell id="Ho__UGd---1bnU0P5M20-95" value="" style="shape=tableRow;horizontal=0;startSize=0;swimlaneHead=0;swimlaneBody=0;fillColor=none;collapsible=0;dropTarget=0;points=[[0,0.5],[1,0.5]];portConstraint=eastwest;top=0;left=0;right=0;bottom=0;strokeColor=inherit;swimlaneLine=0;" vertex="1" parent="Ho__UGd---1bnU0P5M20-94">
          <mxGeometry y="30" width="280" height="20" as="geometry" />
        </mxCell>
        <mxCell id="Ho__UGd---1bnU0P5M20-96" value="PK,FK" style="shape=partialRectangle;connectable=0;fillColor=none;top=0;left=0;bottom=0;right=0;fontStyle=1;overflow=hidden;whiteSpace=wrap;html=1;strokeColor=inherit;" vertex="1" parent="Ho__UGd---1bnU0P5M20-95">
          <mxGeometry width="60" height="20" as="geometry">
            <mxRectangle width="60" height="20" as="alternateBounds" />
          </mxGeometry>
        </mxCell>
        <mxCell id="Ho__UGd---1bnU0P5M20-97" value="MonthKey" style="shape=partialRectangle;connectable=0;fillColor=none;top=0;left=0;bottom=0;right=0;align=left;spacingLeft=6;fontStyle=5;overflow=hidden;whiteSpace=wrap;html=1;strokeColor=inherit;allowArrows=1;" vertex="1" parent="Ho__UGd---1bnU0P5M20-95">
          <mxGeometry x="60" width="220" height="20" as="geometry">
            <mxRectangle width="220" height="20" as="alternateBounds" />
          </mxGeometry>
        </mxCell>
        <mxCell id="Ho__UGd---1bnU0P5M20-98" value="" style="shape=tableRow;horizontal=0;startSize=0;swimlaneHead=0;swimlaneBody=0;fillColor=none;collapsible=0;dropTarget=0;points=[[0,0.5],[1,0.5]];portConstraint=eastwest;top=0;left=0;right=0;bottom=0;strokeColor=inherit;swimlaneLine=0;" vertex="1" parent="Ho__UGd---1bnU0P5M20-94">
          <mxGeometry y="50" width="280" height="20" as="geometry" />
        </mxCell>
        <mxCell id="Ho__UGd---1bnU0P5M20-99" value="PK,FK" style="shape=partialRectangle;connectable=0;fillColor=none;top=0;left=0;bottom=0;right=0;fontStyle=1;overflow=hidden;whiteSpace=wrap;html=1;strokeColor=inherit;" vertex="1" parent="Ho__UGd---1bnU0P5M20-98">
          <mxGeometry width="60" height="20" as="geometry">
            <mxRectangle width="60" height="20" as="alternateBounds" />
          </mxGeometry>
        </mxCell>
        <mxCell id="Ho__UGd---1bnU0P5M20-100" value="FacultyMemberKey" style="shape=partialRectangle;connectable=0;fillColor=none;top=0;left=0;bottom=0;right=0;align=left;spacingLeft=6;fontStyle=5;overflow=hidden;whiteSpace=wrap;html=1;strokeColor=inherit;allowArrows=1;" vertex="1" parent="Ho__UGd---1bnU0P5M20-98">
          <mxGeometry x="60" width="220" height="20" as="geometry">
            <mxRectangle width="220" height="20" as="alternateBounds" />
          </mxGeometry>
        </mxCell>
        <mxCell id="Ho__UGd---1bnU0P5M20-101" value="" style="shape=tableRow;horizontal=0;startSize=0;swimlaneHead=0;swimlaneBody=0;fillColor=none;collapsible=0;dropTarget=0;points=[[0,0.5],[1,0.5]];portConstraint=eastwest;top=0;left=0;right=0;bottom=1;strokeColor=inherit;swimlaneLine=0;" vertex="1" parent="Ho__UGd---1bnU0P5M20-94">
          <mxGeometry y="70" width="280" height="20" as="geometry" />
        </mxCell>
        <mxCell id="Ho__UGd---1bnU0P5M20-102" value="PK,FK" style="shape=partialRectangle;connectable=0;fillColor=none;top=0;left=0;bottom=0;right=0;fontStyle=1;overflow=hidden;whiteSpace=wrap;html=1;strokeColor=inherit;" vertex="1" parent="Ho__UGd---1bnU0P5M20-101">
          <mxGeometry width="60" height="20" as="geometry">
            <mxRectangle width="60" height="20" as="alternateBounds" />
          </mxGeometry>
        </mxCell>
        <mxCell id="Ho__UGd---1bnU0P5M20-103" value="PublicationStatusKey&amp;nbsp;" style="shape=partialRectangle;connectable=0;fillColor=none;top=0;left=0;bottom=0;right=0;align=left;spacingLeft=6;fontStyle=5;overflow=hidden;whiteSpace=wrap;html=1;strokeColor=inherit;allowArrows=1;" vertex="1" parent="Ho__UGd---1bnU0P5M20-101">
          <mxGeometry x="60" width="220" height="20" as="geometry">
            <mxRectangle width="220" height="20" as="alternateBounds" />
          </mxGeometry>
        </mxCell>
        <mxCell id="Ho__UGd---1bnU0P5M20-104" value="" style="shape=tableRow;horizontal=0;startSize=0;swimlaneHead=0;swimlaneBody=0;fillColor=none;collapsible=0;dropTarget=0;points=[[0,0.5],[1,0.5]];portConstraint=eastwest;top=0;left=0;right=0;bottom=0;" vertex="1" parent="Ho__UGd---1bnU0P5M20-94">
          <mxGeometry y="90" width="280" height="30" as="geometry" />
        </mxCell>
        <mxCell id="Ho__UGd---1bnU0P5M20-105" value="" style="shape=partialRectangle;connectable=0;fillColor=none;top=0;left=0;bottom=0;right=0;editable=1;overflow=hidden;whiteSpace=wrap;html=1;" vertex="1" parent="Ho__UGd---1bnU0P5M20-104">
          <mxGeometry width="60" height="30" as="geometry">
            <mxRectangle width="60" height="30" as="alternateBounds" />
          </mxGeometry>
        </mxCell>
        <mxCell id="Ho__UGd---1bnU0P5M20-106" value="PublicationCount" style="shape=partialRectangle;connectable=0;fillColor=none;top=0;left=0;bottom=0;right=0;align=left;spacingLeft=6;overflow=hidden;whiteSpace=wrap;html=1;" vertex="1" parent="Ho__UGd---1bnU0P5M20-104">
          <mxGeometry x="60" width="220" height="30" as="geometry">
            <mxRectangle width="220" height="30" as="alternateBounds" />
          </mxGeometry>
        </mxCell>
        <mxCell id="Ho__UGd---1bnU0P5M20-117" style="edgeStyle=none;rounded=0;orthogonalLoop=1;jettySize=auto;html=1;entryX=0;entryY=0.5;entryDx=0;entryDy=0;endArrow=none;endFill=0;exitX=1;exitY=0.5;exitDx=0;exitDy=0;" edge="1" parent="1" source="Ho__UGd---1bnU0P5M20-111" target="Ho__UGd---1bnU0P5M20-95">
          <mxGeometry relative="1" as="geometry" />
        </mxCell>
        <mxCell id="Ho__UGd---1bnU0P5M20-110" value="DIM_MONTH" style="shape=table;startSize=30;container=1;collapsible=1;childLayout=tableLayout;fixedRows=1;rowLines=0;fontStyle=1;align=center;resizeLast=1;html=1;" vertex="1" parent="1">
          <mxGeometry x="-100" y="410" width="180" height="80" as="geometry" />
        </mxCell>
        <mxCell id="Ho__UGd---1bnU0P5M20-111" value="" style="shape=tableRow;horizontal=0;startSize=0;swimlaneHead=0;swimlaneBody=0;fillColor=none;collapsible=0;dropTarget=0;points=[[0,0.5],[1,0.5]];portConstraint=eastwest;top=0;left=0;right=0;bottom=1;" vertex="1" parent="Ho__UGd---1bnU0P5M20-110">
          <mxGeometry y="30" width="180" height="30" as="geometry" />
        </mxCell>
        <mxCell id="Ho__UGd---1bnU0P5M20-112" value="PK" style="shape=partialRectangle;connectable=0;fillColor=none;top=0;left=0;bottom=0;right=0;fontStyle=1;overflow=hidden;whiteSpace=wrap;html=1;" vertex="1" parent="Ho__UGd---1bnU0P5M20-111">
          <mxGeometry width="50" height="30" as="geometry">
            <mxRectangle width="50" height="30" as="alternateBounds" />
          </mxGeometry>
        </mxCell>
        <mxCell id="Ho__UGd---1bnU0P5M20-113" value="MonthKey" style="shape=partialRectangle;connectable=0;fillColor=none;top=0;left=0;bottom=0;right=0;align=left;spacingLeft=6;fontStyle=5;overflow=hidden;whiteSpace=wrap;html=1;" vertex="1" parent="Ho__UGd---1bnU0P5M20-111">
          <mxGeometry x="50" width="130" height="30" as="geometry">
            <mxRectangle width="130" height="30" as="alternateBounds" />
          </mxGeometry>
        </mxCell>
        <mxCell id="Ho__UGd---1bnU0P5M20-124" value="" style="shape=tableRow;horizontal=0;startSize=0;swimlaneHead=0;swimlaneBody=0;fillColor=none;collapsible=0;dropTarget=0;points=[[0,0.5],[1,0.5]];portConstraint=eastwest;top=0;left=0;right=0;bottom=0;" vertex="1" parent="Ho__UGd---1bnU0P5M20-110">
          <mxGeometry y="60" width="180" height="20" as="geometry" />
        </mxCell>
        <mxCell id="Ho__UGd---1bnU0P5M20-125" value="" style="shape=partialRectangle;connectable=0;fillColor=none;top=0;left=0;bottom=0;right=0;editable=1;overflow=hidden;whiteSpace=wrap;html=1;" vertex="1" parent="Ho__UGd---1bnU0P5M20-124">
          <mxGeometry width="50" height="20" as="geometry">
            <mxRectangle width="50" height="20" as="alternateBounds" />
          </mxGeometry>
        </mxCell>
        <mxCell id="Ho__UGd---1bnU0P5M20-126" value="Month" style="shape=partialRectangle;connectable=0;fillColor=none;top=0;left=0;bottom=0;right=0;align=left;spacingLeft=6;overflow=hidden;whiteSpace=wrap;html=1;" vertex="1" parent="Ho__UGd---1bnU0P5M20-124">
          <mxGeometry x="50" width="130" height="20" as="geometry">
            <mxRectangle width="130" height="20" as="alternateBounds" />
          </mxGeometry>
        </mxCell>
        <mxCell id="Ho__UGd---1bnU0P5M20-133" value="DIM_FACULTY_MEMBER" style="shape=table;startSize=30;container=1;collapsible=1;childLayout=tableLayout;fixedRows=1;rowLines=0;fontStyle=1;align=center;resizeLast=1;html=1;" vertex="1" parent="1">
          <mxGeometry x="470" y="450" width="180" height="140" as="geometry" />
        </mxCell>
        <mxCell id="Ho__UGd---1bnU0P5M20-134" value="" style="shape=tableRow;horizontal=0;startSize=0;swimlaneHead=0;swimlaneBody=0;fillColor=none;collapsible=0;dropTarget=0;points=[[0,0.5],[1,0.5]];portConstraint=eastwest;top=0;left=0;right=0;bottom=1;" vertex="1" parent="Ho__UGd---1bnU0P5M20-133">
          <mxGeometry y="30" width="180" height="30" as="geometry" />
        </mxCell>
        <mxCell id="Ho__UGd---1bnU0P5M20-135" value="PK" style="shape=partialRectangle;connectable=0;fillColor=none;top=0;left=0;bottom=0;right=0;fontStyle=1;overflow=hidden;whiteSpace=wrap;html=1;" vertex="1" parent="Ho__UGd---1bnU0P5M20-134">
          <mxGeometry width="50" height="30" as="geometry">
            <mxRectangle width="50" height="30" as="alternateBounds" />
          </mxGeometry>
        </mxCell>
        <mxCell id="Ho__UGd---1bnU0P5M20-136" value="FacultyMemberKey" style="shape=partialRectangle;connectable=0;fillColor=none;top=0;left=0;bottom=0;right=0;align=left;spacingLeft=6;fontStyle=5;overflow=hidden;whiteSpace=wrap;html=1;" vertex="1" parent="Ho__UGd---1bnU0P5M20-134">
          <mxGeometry x="50" width="130" height="30" as="geometry">
            <mxRectangle width="130" height="30" as="alternateBounds" />
          </mxGeometry>
        </mxCell>
        <mxCell id="Ho__UGd---1bnU0P5M20-137" value="" style="shape=tableRow;horizontal=0;startSize=0;swimlaneHead=0;swimlaneBody=0;fillColor=none;collapsible=0;dropTarget=0;points=[[0,0.5],[1,0.5]];portConstraint=eastwest;top=0;left=0;right=0;bottom=0;" vertex="1" parent="Ho__UGd---1bnU0P5M20-133">
          <mxGeometry y="60" width="180" height="20" as="geometry" />
        </mxCell>
        <mxCell id="Ho__UGd---1bnU0P5M20-138" value="" style="shape=partialRectangle;connectable=0;fillColor=none;top=0;left=0;bottom=0;right=0;editable=1;overflow=hidden;whiteSpace=wrap;html=1;" vertex="1" parent="Ho__UGd---1bnU0P5M20-137">
          <mxGeometry width="50" height="20" as="geometry">
            <mxRectangle width="50" height="20" as="alternateBounds" />
          </mxGeometry>
        </mxCell>
        <mxCell id="Ho__UGd---1bnU0P5M20-139" value="FacultyMemberID" style="shape=partialRectangle;connectable=0;fillColor=none;top=0;left=0;bottom=0;right=0;align=left;spacingLeft=6;overflow=hidden;whiteSpace=wrap;html=1;" vertex="1" parent="Ho__UGd---1bnU0P5M20-137">
          <mxGeometry x="50" width="130" height="20" as="geometry">
            <mxRectangle width="130" height="20" as="alternateBounds" />
          </mxGeometry>
        </mxCell>
        <mxCell id="Ho__UGd---1bnU0P5M20-140" value="" style="shape=tableRow;horizontal=0;startSize=0;swimlaneHead=0;swimlaneBody=0;fillColor=none;collapsible=0;dropTarget=0;points=[[0,0.5],[1,0.5]];portConstraint=eastwest;top=0;left=0;right=0;bottom=0;" vertex="1" parent="Ho__UGd---1bnU0P5M20-133">
          <mxGeometry y="80" width="180" height="20" as="geometry" />
        </mxCell>
        <mxCell id="Ho__UGd---1bnU0P5M20-141" value="" style="shape=partialRectangle;connectable=0;fillColor=none;top=0;left=0;bottom=0;right=0;editable=1;overflow=hidden;whiteSpace=wrap;html=1;" vertex="1" parent="Ho__UGd---1bnU0P5M20-140">
          <mxGeometry width="50" height="20" as="geometry">
            <mxRectangle width="50" height="20" as="alternateBounds" />
          </mxGeometry>
        </mxCell>
        <mxCell id="Ho__UGd---1bnU0P5M20-142" value="FirstName" style="shape=partialRectangle;connectable=0;fillColor=none;top=0;left=0;bottom=0;right=0;align=left;spacingLeft=6;overflow=hidden;whiteSpace=wrap;html=1;" vertex="1" parent="Ho__UGd---1bnU0P5M20-140">
          <mxGeometry x="50" width="130" height="20" as="geometry">
            <mxRectangle width="130" height="20" as="alternateBounds" />
          </mxGeometry>
        </mxCell>
        <mxCell id="Ho__UGd---1bnU0P5M20-143" value="" style="shape=tableRow;horizontal=0;startSize=0;swimlaneHead=0;swimlaneBody=0;fillColor=none;collapsible=0;dropTarget=0;points=[[0,0.5],[1,0.5]];portConstraint=eastwest;top=0;left=0;right=0;bottom=0;" vertex="1" parent="Ho__UGd---1bnU0P5M20-133">
          <mxGeometry y="100" width="180" height="20" as="geometry" />
        </mxCell>
        <mxCell id="Ho__UGd---1bnU0P5M20-144" value="" style="shape=partialRectangle;connectable=0;fillColor=none;top=0;left=0;bottom=0;right=0;editable=1;overflow=hidden;whiteSpace=wrap;html=1;" vertex="1" parent="Ho__UGd---1bnU0P5M20-143">
          <mxGeometry width="50" height="20" as="geometry">
            <mxRectangle width="50" height="20" as="alternateBounds" />
          </mxGeometry>
        </mxCell>
        <mxCell id="Ho__UGd---1bnU0P5M20-145" value="LastName" style="shape=partialRectangle;connectable=0;fillColor=none;top=0;left=0;bottom=0;right=0;align=left;spacingLeft=6;overflow=hidden;whiteSpace=wrap;html=1;" vertex="1" parent="Ho__UGd---1bnU0P5M20-143">
          <mxGeometry x="50" width="130" height="20" as="geometry">
            <mxRectangle width="130" height="20" as="alternateBounds" />
          </mxGeometry>
        </mxCell>
        <mxCell id="Ho__UGd---1bnU0P5M20-146" value="" style="shape=tableRow;horizontal=0;startSize=0;swimlaneHead=0;swimlaneBody=0;fillColor=none;collapsible=0;dropTarget=0;points=[[0,0.5],[1,0.5]];portConstraint=eastwest;top=0;left=0;right=0;bottom=0;" vertex="1" parent="Ho__UGd---1bnU0P5M20-133">
          <mxGeometry y="120" width="180" height="20" as="geometry" />
        </mxCell>
        <mxCell id="Ho__UGd---1bnU0P5M20-147" value="" style="shape=partialRectangle;connectable=0;fillColor=none;top=0;left=0;bottom=0;right=0;editable=1;overflow=hidden;whiteSpace=wrap;html=1;" vertex="1" parent="Ho__UGd---1bnU0P5M20-146">
          <mxGeometry width="50" height="20" as="geometry">
            <mxRectangle width="50" height="20" as="alternateBounds" />
          </mxGeometry>
        </mxCell>
        <mxCell id="Ho__UGd---1bnU0P5M20-148" value="Department" style="shape=partialRectangle;connectable=0;fillColor=none;top=0;left=0;bottom=0;right=0;align=left;spacingLeft=6;overflow=hidden;whiteSpace=wrap;html=1;" vertex="1" parent="Ho__UGd---1bnU0P5M20-146">
          <mxGeometry x="50" width="130" height="20" as="geometry">
            <mxRectangle width="130" height="20" as="alternateBounds" />
          </mxGeometry>
        </mxCell>
        <mxCell id="Ho__UGd---1bnU0P5M20-149" style="edgeStyle=none;rounded=0;orthogonalLoop=1;jettySize=auto;html=1;entryX=0;entryY=0.5;entryDx=0;entryDy=0;endArrow=none;endFill=0;" edge="1" parent="1" target="Ho__UGd---1bnU0P5M20-134">
          <mxGeometry relative="1" as="geometry">
            <mxPoint x="410" y="520" as="sourcePoint" />
            <Array as="points" />
          </mxGeometry>
        </mxCell>
        <mxCell id="Ho__UGd---1bnU0P5M20-150" value="DIM_PUBLICATION_STATUS" style="shape=table;startSize=30;container=1;collapsible=1;childLayout=tableLayout;fixedRows=1;rowLines=0;fontStyle=1;align=center;resizeLast=1;html=1;" vertex="1" parent="1">
          <mxGeometry x="-105" y="530" width="190" height="80" as="geometry" />
        </mxCell>
        <mxCell id="Ho__UGd---1bnU0P5M20-151" value="" style="shape=tableRow;horizontal=0;startSize=0;swimlaneHead=0;swimlaneBody=0;fillColor=none;collapsible=0;dropTarget=0;points=[[0,0.5],[1,0.5]];portConstraint=eastwest;top=0;left=0;right=0;bottom=1;" vertex="1" parent="Ho__UGd---1bnU0P5M20-150">
          <mxGeometry y="30" width="190" height="30" as="geometry" />
        </mxCell>
        <mxCell id="Ho__UGd---1bnU0P5M20-152" value="PK" style="shape=partialRectangle;connectable=0;fillColor=none;top=0;left=0;bottom=0;right=0;fontStyle=1;overflow=hidden;whiteSpace=wrap;html=1;" vertex="1" parent="Ho__UGd---1bnU0P5M20-151">
          <mxGeometry width="50" height="30" as="geometry">
            <mxRectangle width="50" height="30" as="alternateBounds" />
          </mxGeometry>
        </mxCell>
        <mxCell id="Ho__UGd---1bnU0P5M20-153" value="PublicationStatusKey" style="shape=partialRectangle;connectable=0;fillColor=none;top=0;left=0;bottom=0;right=0;align=left;spacingLeft=6;fontStyle=5;overflow=hidden;whiteSpace=wrap;html=1;" vertex="1" parent="Ho__UGd---1bnU0P5M20-151">
          <mxGeometry x="50" width="140" height="30" as="geometry">
            <mxRectangle width="140" height="30" as="alternateBounds" />
          </mxGeometry>
        </mxCell>
        <mxCell id="Ho__UGd---1bnU0P5M20-154" value="" style="shape=tableRow;horizontal=0;startSize=0;swimlaneHead=0;swimlaneBody=0;fillColor=none;collapsible=0;dropTarget=0;points=[[0,0.5],[1,0.5]];portConstraint=eastwest;top=0;left=0;right=0;bottom=0;" vertex="1" parent="Ho__UGd---1bnU0P5M20-150">
          <mxGeometry y="60" width="190" height="20" as="geometry" />
        </mxCell>
        <mxCell id="Ho__UGd---1bnU0P5M20-155" value="" style="shape=partialRectangle;connectable=0;fillColor=none;top=0;left=0;bottom=0;right=0;editable=1;overflow=hidden;whiteSpace=wrap;html=1;" vertex="1" parent="Ho__UGd---1bnU0P5M20-154">
          <mxGeometry width="50" height="20" as="geometry">
            <mxRectangle width="50" height="20" as="alternateBounds" />
          </mxGeometry>
        </mxCell>
        <mxCell id="Ho__UGd---1bnU0P5M20-156" value="StatusDescription" style="shape=partialRectangle;connectable=0;fillColor=none;top=0;left=0;bottom=0;right=0;align=left;spacingLeft=6;overflow=hidden;whiteSpace=wrap;html=1;" vertex="1" parent="Ho__UGd---1bnU0P5M20-154">
          <mxGeometry x="50" width="140" height="20" as="geometry">
            <mxRectangle width="140" height="20" as="alternateBounds" />
          </mxGeometry>
        </mxCell>
        <mxCell id="Ho__UGd---1bnU0P5M20-166" style="edgeStyle=none;rounded=0;orthogonalLoop=1;jettySize=auto;html=1;entryX=0;entryY=0.5;entryDx=0;entryDy=0;exitX=1;exitY=0.5;exitDx=0;exitDy=0;endArrow=none;endFill=0;" edge="1" parent="1" source="Ho__UGd---1bnU0P5M20-151" target="Ho__UGd---1bnU0P5M20-101">
          <mxGeometry relative="1" as="geometry" />
        </mxCell>
        <mxCell id="Ho__UGd---1bnU0P5M20-242" style="edgeStyle=none;rounded=0;orthogonalLoop=1;jettySize=auto;html=1;entryX=0;entryY=0.5;entryDx=0;entryDy=0;endArrow=none;endFill=0;exitX=1;exitY=0.5;exitDx=0;exitDy=0;" edge="1" parent="1" source="Ho__UGd---1bnU0P5M20-174" target="Ho__UGd---1bnU0P5M20-207">
          <mxGeometry relative="1" as="geometry" />
        </mxCell>
        <mxCell id="Ho__UGd---1bnU0P5M20-170" value="FACT_ATTENDANCE" style="shape=table;startSize=30;container=1;collapsible=1;childLayout=tableLayout;fixedRows=1;rowLines=0;fontStyle=1;align=center;resizeLast=1;html=1;strokeColor=default;" vertex="1" parent="1">
          <mxGeometry x="100" y="760" width="280" height="90" as="geometry" />
        </mxCell>
        <mxCell id="Ho__UGd---1bnU0P5M20-171" value="" style="shape=tableRow;horizontal=0;startSize=0;swimlaneHead=0;swimlaneBody=0;fillColor=none;collapsible=0;dropTarget=0;points=[[0,0.5],[1,0.5]];portConstraint=eastwest;top=0;left=0;right=0;bottom=0;strokeColor=inherit;swimlaneLine=0;" vertex="1" parent="Ho__UGd---1bnU0P5M20-170">
          <mxGeometry y="30" width="280" height="20" as="geometry" />
        </mxCell>
        <mxCell id="Ho__UGd---1bnU0P5M20-172" value="PK,FK" style="shape=partialRectangle;connectable=0;fillColor=none;top=0;left=0;bottom=0;right=0;fontStyle=1;overflow=hidden;whiteSpace=wrap;html=1;strokeColor=inherit;" vertex="1" parent="Ho__UGd---1bnU0P5M20-171">
          <mxGeometry width="60" height="20" as="geometry">
            <mxRectangle width="60" height="20" as="alternateBounds" />
          </mxGeometry>
        </mxCell>
        <mxCell id="Ho__UGd---1bnU0P5M20-173" value="StudentKey" style="shape=partialRectangle;connectable=0;fillColor=none;top=0;left=0;bottom=0;right=0;align=left;spacingLeft=6;fontStyle=5;overflow=hidden;whiteSpace=wrap;html=1;strokeColor=inherit;allowArrows=1;" vertex="1" parent="Ho__UGd---1bnU0P5M20-171">
          <mxGeometry x="60" width="220" height="20" as="geometry">
            <mxRectangle width="220" height="20" as="alternateBounds" />
          </mxGeometry>
        </mxCell>
        <mxCell id="Ho__UGd---1bnU0P5M20-174" value="" style="shape=tableRow;horizontal=0;startSize=0;swimlaneHead=0;swimlaneBody=0;fillColor=none;collapsible=0;dropTarget=0;points=[[0,0.5],[1,0.5]];portConstraint=eastwest;top=0;left=0;right=0;bottom=0;strokeColor=inherit;swimlaneLine=0;" vertex="1" parent="Ho__UGd---1bnU0P5M20-170">
          <mxGeometry y="50" width="280" height="20" as="geometry" />
        </mxCell>
        <mxCell id="Ho__UGd---1bnU0P5M20-175" value="PK,FK" style="shape=partialRectangle;connectable=0;fillColor=none;top=0;left=0;bottom=0;right=0;fontStyle=1;overflow=hidden;whiteSpace=wrap;html=1;strokeColor=inherit;" vertex="1" parent="Ho__UGd---1bnU0P5M20-174">
          <mxGeometry width="60" height="20" as="geometry">
            <mxRectangle width="60" height="20" as="alternateBounds" />
          </mxGeometry>
        </mxCell>
        <mxCell id="Ho__UGd---1bnU0P5M20-176" value="ProgramKey" style="shape=partialRectangle;connectable=0;fillColor=none;top=0;left=0;bottom=0;right=0;align=left;spacingLeft=6;fontStyle=5;overflow=hidden;whiteSpace=wrap;html=1;strokeColor=inherit;allowArrows=1;" vertex="1" parent="Ho__UGd---1bnU0P5M20-174">
          <mxGeometry x="60" width="220" height="20" as="geometry">
            <mxRectangle width="220" height="20" as="alternateBounds" />
          </mxGeometry>
        </mxCell>
        <mxCell id="Ho__UGd---1bnU0P5M20-238" value="" style="shape=tableRow;horizontal=0;startSize=0;swimlaneHead=0;swimlaneBody=0;fillColor=none;collapsible=0;dropTarget=0;points=[[0,0.5],[1,0.5]];portConstraint=eastwest;top=0;left=0;right=0;bottom=0;strokeColor=inherit;swimlaneLine=0;" vertex="1" parent="Ho__UGd---1bnU0P5M20-170">
          <mxGeometry y="70" width="280" height="20" as="geometry" />
        </mxCell>
        <mxCell id="Ho__UGd---1bnU0P5M20-239" value="PK,FK" style="shape=partialRectangle;connectable=0;fillColor=none;top=0;left=0;bottom=0;right=0;fontStyle=1;overflow=hidden;whiteSpace=wrap;html=1;strokeColor=inherit;" vertex="1" parent="Ho__UGd---1bnU0P5M20-238">
          <mxGeometry width="60" height="20" as="geometry">
            <mxRectangle width="60" height="20" as="alternateBounds" />
          </mxGeometry>
        </mxCell>
        <mxCell id="Ho__UGd---1bnU0P5M20-240" value="SessionKey" style="shape=partialRectangle;connectable=0;fillColor=none;top=0;left=0;bottom=0;right=0;align=left;spacingLeft=6;fontStyle=5;overflow=hidden;whiteSpace=wrap;html=1;strokeColor=inherit;allowArrows=1;" vertex="1" parent="Ho__UGd---1bnU0P5M20-238">
          <mxGeometry x="60" width="220" height="20" as="geometry">
            <mxRectangle width="220" height="20" as="alternateBounds" />
          </mxGeometry>
        </mxCell>
        <mxCell id="Ho__UGd---1bnU0P5M20-241" style="edgeStyle=none;rounded=0;orthogonalLoop=1;jettySize=auto;html=1;entryX=0;entryY=0.5;entryDx=0;entryDy=0;endArrow=none;endFill=0;exitX=1;exitY=0.5;exitDx=0;exitDy=0;" edge="1" parent="1" source="Ho__UGd---1bnU0P5M20-191" target="Ho__UGd---1bnU0P5M20-171">
          <mxGeometry relative="1" as="geometry" />
        </mxCell>
        <mxCell id="Ho__UGd---1bnU0P5M20-190" value="DIM_STUDENTS" style="shape=table;startSize=30;container=1;collapsible=1;childLayout=tableLayout;fixedRows=1;rowLines=0;fontStyle=1;align=center;resizeLast=1;html=1;" vertex="1" parent="1">
          <mxGeometry x="-180" y="710" width="180" height="140" as="geometry" />
        </mxCell>
        <mxCell id="Ho__UGd---1bnU0P5M20-191" value="" style="shape=tableRow;horizontal=0;startSize=0;swimlaneHead=0;swimlaneBody=0;fillColor=none;collapsible=0;dropTarget=0;points=[[0,0.5],[1,0.5]];portConstraint=eastwest;top=0;left=0;right=0;bottom=1;" vertex="1" parent="Ho__UGd---1bnU0P5M20-190">
          <mxGeometry y="30" width="180" height="30" as="geometry" />
        </mxCell>
        <mxCell id="Ho__UGd---1bnU0P5M20-192" value="PK" style="shape=partialRectangle;connectable=0;fillColor=none;top=0;left=0;bottom=0;right=0;fontStyle=1;overflow=hidden;whiteSpace=wrap;html=1;" vertex="1" parent="Ho__UGd---1bnU0P5M20-191">
          <mxGeometry width="50" height="30" as="geometry">
            <mxRectangle width="50" height="30" as="alternateBounds" />
          </mxGeometry>
        </mxCell>
        <mxCell id="Ho__UGd---1bnU0P5M20-193" value="StudentKey" style="shape=partialRectangle;connectable=0;fillColor=none;top=0;left=0;bottom=0;right=0;align=left;spacingLeft=6;fontStyle=5;overflow=hidden;whiteSpace=wrap;html=1;" vertex="1" parent="Ho__UGd---1bnU0P5M20-191">
          <mxGeometry x="50" width="130" height="30" as="geometry">
            <mxRectangle width="130" height="30" as="alternateBounds" />
          </mxGeometry>
        </mxCell>
        <mxCell id="Ho__UGd---1bnU0P5M20-194" value="" style="shape=tableRow;horizontal=0;startSize=0;swimlaneHead=0;swimlaneBody=0;fillColor=none;collapsible=0;dropTarget=0;points=[[0,0.5],[1,0.5]];portConstraint=eastwest;top=0;left=0;right=0;bottom=0;" vertex="1" parent="Ho__UGd---1bnU0P5M20-190">
          <mxGeometry y="60" width="180" height="20" as="geometry" />
        </mxCell>
        <mxCell id="Ho__UGd---1bnU0P5M20-195" value="" style="shape=partialRectangle;connectable=0;fillColor=none;top=0;left=0;bottom=0;right=0;editable=1;overflow=hidden;whiteSpace=wrap;html=1;" vertex="1" parent="Ho__UGd---1bnU0P5M20-194">
          <mxGeometry width="50" height="20" as="geometry">
            <mxRectangle width="50" height="20" as="alternateBounds" />
          </mxGeometry>
        </mxCell>
        <mxCell id="Ho__UGd---1bnU0P5M20-196" value="StudentID" style="shape=partialRectangle;connectable=0;fillColor=none;top=0;left=0;bottom=0;right=0;align=left;spacingLeft=6;overflow=hidden;whiteSpace=wrap;html=1;" vertex="1" parent="Ho__UGd---1bnU0P5M20-194">
          <mxGeometry x="50" width="130" height="20" as="geometry">
            <mxRectangle width="130" height="20" as="alternateBounds" />
          </mxGeometry>
        </mxCell>
        <mxCell id="Ho__UGd---1bnU0P5M20-197" value="" style="shape=tableRow;horizontal=0;startSize=0;swimlaneHead=0;swimlaneBody=0;fillColor=none;collapsible=0;dropTarget=0;points=[[0,0.5],[1,0.5]];portConstraint=eastwest;top=0;left=0;right=0;bottom=0;" vertex="1" parent="Ho__UGd---1bnU0P5M20-190">
          <mxGeometry y="80" width="180" height="20" as="geometry" />
        </mxCell>
        <mxCell id="Ho__UGd---1bnU0P5M20-198" value="" style="shape=partialRectangle;connectable=0;fillColor=none;top=0;left=0;bottom=0;right=0;editable=1;overflow=hidden;whiteSpace=wrap;html=1;" vertex="1" parent="Ho__UGd---1bnU0P5M20-197">
          <mxGeometry width="50" height="20" as="geometry">
            <mxRectangle width="50" height="20" as="alternateBounds" />
          </mxGeometry>
        </mxCell>
        <mxCell id="Ho__UGd---1bnU0P5M20-199" value="FirstName" style="shape=partialRectangle;connectable=0;fillColor=none;top=0;left=0;bottom=0;right=0;align=left;spacingLeft=6;overflow=hidden;whiteSpace=wrap;html=1;" vertex="1" parent="Ho__UGd---1bnU0P5M20-197">
          <mxGeometry x="50" width="130" height="20" as="geometry">
            <mxRectangle width="130" height="20" as="alternateBounds" />
          </mxGeometry>
        </mxCell>
        <mxCell id="Ho__UGd---1bnU0P5M20-200" value="" style="shape=tableRow;horizontal=0;startSize=0;swimlaneHead=0;swimlaneBody=0;fillColor=none;collapsible=0;dropTarget=0;points=[[0,0.5],[1,0.5]];portConstraint=eastwest;top=0;left=0;right=0;bottom=0;" vertex="1" parent="Ho__UGd---1bnU0P5M20-190">
          <mxGeometry y="100" width="180" height="20" as="geometry" />
        </mxCell>
        <mxCell id="Ho__UGd---1bnU0P5M20-201" value="" style="shape=partialRectangle;connectable=0;fillColor=none;top=0;left=0;bottom=0;right=0;editable=1;overflow=hidden;whiteSpace=wrap;html=1;" vertex="1" parent="Ho__UGd---1bnU0P5M20-200">
          <mxGeometry width="50" height="20" as="geometry">
            <mxRectangle width="50" height="20" as="alternateBounds" />
          </mxGeometry>
        </mxCell>
        <mxCell id="Ho__UGd---1bnU0P5M20-202" value="LastName" style="shape=partialRectangle;connectable=0;fillColor=none;top=0;left=0;bottom=0;right=0;align=left;spacingLeft=6;overflow=hidden;whiteSpace=wrap;html=1;" vertex="1" parent="Ho__UGd---1bnU0P5M20-200">
          <mxGeometry x="50" width="130" height="20" as="geometry">
            <mxRectangle width="130" height="20" as="alternateBounds" />
          </mxGeometry>
        </mxCell>
        <mxCell id="Ho__UGd---1bnU0P5M20-203" value="" style="shape=tableRow;horizontal=0;startSize=0;swimlaneHead=0;swimlaneBody=0;fillColor=none;collapsible=0;dropTarget=0;points=[[0,0.5],[1,0.5]];portConstraint=eastwest;top=0;left=0;right=0;bottom=0;" vertex="1" parent="Ho__UGd---1bnU0P5M20-190">
          <mxGeometry y="120" width="180" height="20" as="geometry" />
        </mxCell>
        <mxCell id="Ho__UGd---1bnU0P5M20-204" value="" style="shape=partialRectangle;connectable=0;fillColor=none;top=0;left=0;bottom=0;right=0;editable=1;overflow=hidden;whiteSpace=wrap;html=1;" vertex="1" parent="Ho__UGd---1bnU0P5M20-203">
          <mxGeometry width="50" height="20" as="geometry">
            <mxRectangle width="50" height="20" as="alternateBounds" />
          </mxGeometry>
        </mxCell>
        <mxCell id="Ho__UGd---1bnU0P5M20-205" value="Phone" style="shape=partialRectangle;connectable=0;fillColor=none;top=0;left=0;bottom=0;right=0;align=left;spacingLeft=6;overflow=hidden;whiteSpace=wrap;html=1;" vertex="1" parent="Ho__UGd---1bnU0P5M20-203">
          <mxGeometry x="50" width="130" height="20" as="geometry">
            <mxRectangle width="130" height="20" as="alternateBounds" />
          </mxGeometry>
        </mxCell>
        <mxCell id="Ho__UGd---1bnU0P5M20-206" value="DIM_PROGRAMS" style="shape=table;startSize=30;container=1;collapsible=1;childLayout=tableLayout;fixedRows=1;rowLines=0;fontStyle=1;align=center;resizeLast=1;html=1;" vertex="1" parent="1">
          <mxGeometry x="460" y="880" width="180" height="100" as="geometry" />
        </mxCell>
        <mxCell id="Ho__UGd---1bnU0P5M20-207" value="" style="shape=tableRow;horizontal=0;startSize=0;swimlaneHead=0;swimlaneBody=0;fillColor=none;collapsible=0;dropTarget=0;points=[[0,0.5],[1,0.5]];portConstraint=eastwest;top=0;left=0;right=0;bottom=1;" vertex="1" parent="Ho__UGd---1bnU0P5M20-206">
          <mxGeometry y="30" width="180" height="30" as="geometry" />
        </mxCell>
        <mxCell id="Ho__UGd---1bnU0P5M20-208" value="PK" style="shape=partialRectangle;connectable=0;fillColor=none;top=0;left=0;bottom=0;right=0;fontStyle=1;overflow=hidden;whiteSpace=wrap;html=1;" vertex="1" parent="Ho__UGd---1bnU0P5M20-207">
          <mxGeometry width="50" height="30" as="geometry">
            <mxRectangle width="50" height="30" as="alternateBounds" />
          </mxGeometry>
        </mxCell>
        <mxCell id="Ho__UGd---1bnU0P5M20-209" value="ProgramKey" style="shape=partialRectangle;connectable=0;fillColor=none;top=0;left=0;bottom=0;right=0;align=left;spacingLeft=6;fontStyle=5;overflow=hidden;whiteSpace=wrap;html=1;" vertex="1" parent="Ho__UGd---1bnU0P5M20-207">
          <mxGeometry x="50" width="130" height="30" as="geometry">
            <mxRectangle width="130" height="30" as="alternateBounds" />
          </mxGeometry>
        </mxCell>
        <mxCell id="Ho__UGd---1bnU0P5M20-210" value="" style="shape=tableRow;horizontal=0;startSize=0;swimlaneHead=0;swimlaneBody=0;fillColor=none;collapsible=0;dropTarget=0;points=[[0,0.5],[1,0.5]];portConstraint=eastwest;top=0;left=0;right=0;bottom=0;" vertex="1" parent="Ho__UGd---1bnU0P5M20-206">
          <mxGeometry y="60" width="180" height="20" as="geometry" />
        </mxCell>
        <mxCell id="Ho__UGd---1bnU0P5M20-211" value="" style="shape=partialRectangle;connectable=0;fillColor=none;top=0;left=0;bottom=0;right=0;editable=1;overflow=hidden;whiteSpace=wrap;html=1;" vertex="1" parent="Ho__UGd---1bnU0P5M20-210">
          <mxGeometry width="50" height="20" as="geometry">
            <mxRectangle width="50" height="20" as="alternateBounds" />
          </mxGeometry>
        </mxCell>
        <mxCell id="Ho__UGd---1bnU0P5M20-212" value="ProgramID" style="shape=partialRectangle;connectable=0;fillColor=none;top=0;left=0;bottom=0;right=0;align=left;spacingLeft=6;overflow=hidden;whiteSpace=wrap;html=1;" vertex="1" parent="Ho__UGd---1bnU0P5M20-210">
          <mxGeometry x="50" width="130" height="20" as="geometry">
            <mxRectangle width="130" height="20" as="alternateBounds" />
          </mxGeometry>
        </mxCell>
        <mxCell id="Ho__UGd---1bnU0P5M20-213" value="" style="shape=tableRow;horizontal=0;startSize=0;swimlaneHead=0;swimlaneBody=0;fillColor=none;collapsible=0;dropTarget=0;points=[[0,0.5],[1,0.5]];portConstraint=eastwest;top=0;left=0;right=0;bottom=0;" vertex="1" parent="Ho__UGd---1bnU0P5M20-206">
          <mxGeometry y="80" width="180" height="20" as="geometry" />
        </mxCell>
        <mxCell id="Ho__UGd---1bnU0P5M20-214" value="FK" style="shape=partialRectangle;connectable=0;fillColor=none;top=0;left=0;bottom=0;right=0;editable=1;overflow=hidden;whiteSpace=wrap;html=1;" vertex="1" parent="Ho__UGd---1bnU0P5M20-213">
          <mxGeometry width="50" height="20" as="geometry">
            <mxRectangle width="50" height="20" as="alternateBounds" />
          </mxGeometry>
        </mxCell>
        <mxCell id="Ho__UGd---1bnU0P5M20-215" value="SessionKey" style="shape=partialRectangle;connectable=0;fillColor=none;top=0;left=0;bottom=0;right=0;align=left;spacingLeft=6;overflow=hidden;whiteSpace=wrap;html=1;" vertex="1" parent="Ho__UGd---1bnU0P5M20-213">
          <mxGeometry x="50" width="130" height="20" as="geometry">
            <mxRectangle width="130" height="20" as="alternateBounds" />
          </mxGeometry>
        </mxCell>
        <mxCell id="Ho__UGd---1bnU0P5M20-222" value="DIM_Session" style="shape=table;startSize=30;container=1;collapsible=1;childLayout=tableLayout;fixedRows=1;rowLines=0;fontStyle=1;align=center;resizeLast=1;html=1;" vertex="1" parent="1">
          <mxGeometry x="-120" y="890" width="180" height="150" as="geometry" />
        </mxCell>
        <mxCell id="Ho__UGd---1bnU0P5M20-223" value="" style="shape=tableRow;horizontal=0;startSize=0;swimlaneHead=0;swimlaneBody=0;fillColor=none;collapsible=0;dropTarget=0;points=[[0,0.5],[1,0.5]];portConstraint=eastwest;top=0;left=0;right=0;bottom=0;" vertex="1" parent="Ho__UGd---1bnU0P5M20-222">
          <mxGeometry y="30" width="180" height="30" as="geometry" />
        </mxCell>
        <mxCell id="Ho__UGd---1bnU0P5M20-224" value="PK" style="shape=partialRectangle;connectable=0;fillColor=none;top=0;left=0;bottom=0;right=0;fontStyle=1;overflow=hidden;whiteSpace=wrap;html=1;" vertex="1" parent="Ho__UGd---1bnU0P5M20-223">
          <mxGeometry width="50" height="30" as="geometry">
            <mxRectangle width="50" height="30" as="alternateBounds" />
          </mxGeometry>
        </mxCell>
        <mxCell id="Ho__UGd---1bnU0P5M20-225" value="SessionKey" style="shape=partialRectangle;connectable=0;fillColor=none;top=0;left=0;bottom=0;right=0;align=left;spacingLeft=6;fontStyle=5;overflow=hidden;whiteSpace=wrap;html=1;" vertex="1" parent="Ho__UGd---1bnU0P5M20-223">
          <mxGeometry x="50" width="130" height="30" as="geometry">
            <mxRectangle width="130" height="30" as="alternateBounds" />
          </mxGeometry>
        </mxCell>
        <mxCell id="Ho__UGd---1bnU0P5M20-361" value="" style="shape=tableRow;horizontal=0;startSize=0;swimlaneHead=0;swimlaneBody=0;fillColor=none;collapsible=0;dropTarget=0;points=[[0,0.5],[1,0.5]];portConstraint=eastwest;top=0;left=0;right=0;bottom=1;" vertex="1" parent="Ho__UGd---1bnU0P5M20-222">
          <mxGeometry y="60" width="180" height="30" as="geometry" />
        </mxCell>
        <mxCell id="Ho__UGd---1bnU0P5M20-362" value="PK,FK" style="shape=partialRectangle;connectable=0;fillColor=none;top=0;left=0;bottom=0;right=0;fontStyle=1;overflow=hidden;whiteSpace=wrap;html=1;" vertex="1" parent="Ho__UGd---1bnU0P5M20-361">
          <mxGeometry width="50" height="30" as="geometry">
            <mxRectangle width="50" height="30" as="alternateBounds" />
          </mxGeometry>
        </mxCell>
        <mxCell id="Ho__UGd---1bnU0P5M20-363" value="SessionKey" style="shape=partialRectangle;connectable=0;fillColor=none;top=0;left=0;bottom=0;right=0;align=left;spacingLeft=6;fontStyle=5;overflow=hidden;whiteSpace=wrap;html=1;" vertex="1" parent="Ho__UGd---1bnU0P5M20-361">
          <mxGeometry x="50" width="130" height="30" as="geometry">
            <mxRectangle width="130" height="30" as="alternateBounds" />
          </mxGeometry>
        </mxCell>
        <mxCell id="Ho__UGd---1bnU0P5M20-226" value="" style="shape=tableRow;horizontal=0;startSize=0;swimlaneHead=0;swimlaneBody=0;fillColor=none;collapsible=0;dropTarget=0;points=[[0,0.5],[1,0.5]];portConstraint=eastwest;top=0;left=0;right=0;bottom=0;" vertex="1" parent="Ho__UGd---1bnU0P5M20-222">
          <mxGeometry y="90" width="180" height="20" as="geometry" />
        </mxCell>
        <mxCell id="Ho__UGd---1bnU0P5M20-227" value="" style="shape=partialRectangle;connectable=0;fillColor=none;top=0;left=0;bottom=0;right=0;editable=1;overflow=hidden;whiteSpace=wrap;html=1;" vertex="1" parent="Ho__UGd---1bnU0P5M20-226">
          <mxGeometry width="50" height="20" as="geometry">
            <mxRectangle width="50" height="20" as="alternateBounds" />
          </mxGeometry>
        </mxCell>
        <mxCell id="Ho__UGd---1bnU0P5M20-228" value="SessionID" style="shape=partialRectangle;connectable=0;fillColor=none;top=0;left=0;bottom=0;right=0;align=left;spacingLeft=6;overflow=hidden;whiteSpace=wrap;html=1;" vertex="1" parent="Ho__UGd---1bnU0P5M20-226">
          <mxGeometry x="50" width="130" height="20" as="geometry">
            <mxRectangle width="130" height="20" as="alternateBounds" />
          </mxGeometry>
        </mxCell>
        <mxCell id="Ho__UGd---1bnU0P5M20-229" value="" style="shape=tableRow;horizontal=0;startSize=0;swimlaneHead=0;swimlaneBody=0;fillColor=none;collapsible=0;dropTarget=0;points=[[0,0.5],[1,0.5]];portConstraint=eastwest;top=0;left=0;right=0;bottom=0;" vertex="1" parent="Ho__UGd---1bnU0P5M20-222">
          <mxGeometry y="110" width="180" height="20" as="geometry" />
        </mxCell>
        <mxCell id="Ho__UGd---1bnU0P5M20-230" value="" style="shape=partialRectangle;connectable=0;fillColor=none;top=0;left=0;bottom=0;right=0;editable=1;overflow=hidden;whiteSpace=wrap;html=1;" vertex="1" parent="Ho__UGd---1bnU0P5M20-229">
          <mxGeometry width="50" height="20" as="geometry">
            <mxRectangle width="50" height="20" as="alternateBounds" />
          </mxGeometry>
        </mxCell>
        <mxCell id="Ho__UGd---1bnU0P5M20-231" value="ProgramID" style="shape=partialRectangle;connectable=0;fillColor=none;top=0;left=0;bottom=0;right=0;align=left;spacingLeft=6;overflow=hidden;whiteSpace=wrap;html=1;" vertex="1" parent="Ho__UGd---1bnU0P5M20-229">
          <mxGeometry x="50" width="130" height="20" as="geometry">
            <mxRectangle width="130" height="20" as="alternateBounds" />
          </mxGeometry>
        </mxCell>
        <mxCell id="Ho__UGd---1bnU0P5M20-235" value="" style="shape=tableRow;horizontal=0;startSize=0;swimlaneHead=0;swimlaneBody=0;fillColor=none;collapsible=0;dropTarget=0;points=[[0,0.5],[1,0.5]];portConstraint=eastwest;top=0;left=0;right=0;bottom=0;" vertex="1" parent="Ho__UGd---1bnU0P5M20-222">
          <mxGeometry y="130" width="180" height="20" as="geometry" />
        </mxCell>
        <mxCell id="Ho__UGd---1bnU0P5M20-236" value="" style="shape=partialRectangle;connectable=0;fillColor=none;top=0;left=0;bottom=0;right=0;editable=1;overflow=hidden;whiteSpace=wrap;html=1;" vertex="1" parent="Ho__UGd---1bnU0P5M20-235">
          <mxGeometry width="50" height="20" as="geometry">
            <mxRectangle width="50" height="20" as="alternateBounds" />
          </mxGeometry>
        </mxCell>
        <mxCell id="Ho__UGd---1bnU0P5M20-237" value="Phone" style="shape=partialRectangle;connectable=0;fillColor=none;top=0;left=0;bottom=0;right=0;align=left;spacingLeft=6;overflow=hidden;whiteSpace=wrap;html=1;" vertex="1" parent="Ho__UGd---1bnU0P5M20-235">
          <mxGeometry x="50" width="130" height="20" as="geometry">
            <mxRectangle width="130" height="20" as="alternateBounds" />
          </mxGeometry>
        </mxCell>
        <mxCell id="Ho__UGd---1bnU0P5M20-243" style="edgeStyle=none;rounded=0;orthogonalLoop=1;jettySize=auto;html=1;entryX=1;entryY=0.5;entryDx=0;entryDy=0;exitX=0;exitY=0.5;exitDx=0;exitDy=0;endArrow=none;endFill=0;" edge="1" parent="1" source="Ho__UGd---1bnU0P5M20-213" target="Ho__UGd---1bnU0P5M20-361">
          <mxGeometry relative="1" as="geometry" />
        </mxCell>
        <mxCell id="Ho__UGd---1bnU0P5M20-267" style="edgeStyle=none;rounded=0;orthogonalLoop=1;jettySize=auto;html=1;entryX=0;entryY=0.5;entryDx=0;entryDy=0;endArrow=none;endFill=0;" edge="1" parent="1" source="Ho__UGd---1bnU0P5M20-260" target="Ho__UGd---1bnU0P5M20-361">
          <mxGeometry relative="1" as="geometry">
            <mxPoint x="190" y="1040" as="targetPoint" />
          </mxGeometry>
        </mxCell>
        <mxCell id="Ho__UGd---1bnU0P5M20-260" value="DIM_DATE" style="shape=table;startSize=20;container=1;collapsible=1;childLayout=tableLayout;fixedRows=1;rowLines=0;fontStyle=1;align=center;resizeLast=1;html=1;" vertex="1" parent="1">
          <mxGeometry x="-330" y="930" width="180" height="80" as="geometry" />
        </mxCell>
        <mxCell id="Ho__UGd---1bnU0P5M20-261" value="" style="shape=tableRow;horizontal=0;startSize=0;swimlaneHead=0;swimlaneBody=0;fillColor=none;collapsible=0;dropTarget=0;points=[[0,0.5],[1,0.5]];portConstraint=eastwest;top=0;left=0;right=0;bottom=1;" vertex="1" parent="Ho__UGd---1bnU0P5M20-260">
          <mxGeometry y="20" width="180" height="30" as="geometry" />
        </mxCell>
        <mxCell id="Ho__UGd---1bnU0P5M20-262" value="PK" style="shape=partialRectangle;connectable=0;fillColor=none;top=0;left=0;bottom=0;right=0;fontStyle=1;overflow=hidden;whiteSpace=wrap;html=1;" vertex="1" parent="Ho__UGd---1bnU0P5M20-261">
          <mxGeometry width="50" height="30" as="geometry">
            <mxRectangle width="50" height="30" as="alternateBounds" />
          </mxGeometry>
        </mxCell>
        <mxCell id="Ho__UGd---1bnU0P5M20-263" value="DateKey" style="shape=partialRectangle;connectable=0;fillColor=none;top=0;left=0;bottom=0;right=0;align=left;spacingLeft=6;fontStyle=5;overflow=hidden;whiteSpace=wrap;html=1;" vertex="1" parent="Ho__UGd---1bnU0P5M20-261">
          <mxGeometry x="50" width="130" height="30" as="geometry">
            <mxRectangle width="130" height="30" as="alternateBounds" />
          </mxGeometry>
        </mxCell>
        <mxCell id="Ho__UGd---1bnU0P5M20-264" value="" style="shape=tableRow;horizontal=0;startSize=0;swimlaneHead=0;swimlaneBody=0;fillColor=none;collapsible=0;dropTarget=0;points=[[0,0.5],[1,0.5]];portConstraint=eastwest;top=0;left=0;right=0;bottom=0;" vertex="1" parent="Ho__UGd---1bnU0P5M20-260">
          <mxGeometry y="50" width="180" height="30" as="geometry" />
        </mxCell>
        <mxCell id="Ho__UGd---1bnU0P5M20-265" value="" style="shape=partialRectangle;connectable=0;fillColor=none;top=0;left=0;bottom=0;right=0;editable=1;overflow=hidden;whiteSpace=wrap;html=1;" vertex="1" parent="Ho__UGd---1bnU0P5M20-264">
          <mxGeometry width="50" height="30" as="geometry">
            <mxRectangle width="50" height="30" as="alternateBounds" />
          </mxGeometry>
        </mxCell>
        <mxCell id="Ho__UGd---1bnU0P5M20-266" value="Date" style="shape=partialRectangle;connectable=0;fillColor=none;top=0;left=0;bottom=0;right=0;align=left;spacingLeft=6;overflow=hidden;whiteSpace=wrap;html=1;" vertex="1" parent="Ho__UGd---1bnU0P5M20-264">
          <mxGeometry x="50" width="130" height="30" as="geometry">
            <mxRectangle width="130" height="30" as="alternateBounds" />
          </mxGeometry>
        </mxCell>
        <mxCell id="Ho__UGd---1bnU0P5M20-268" style="edgeStyle=none;rounded=0;orthogonalLoop=1;jettySize=auto;html=1;entryX=0;entryY=0.5;entryDx=0;entryDy=0;endArrow=none;endFill=0;exitX=1;exitY=0.5;exitDx=0;exitDy=0;" edge="1" parent="1" source="Ho__UGd---1bnU0P5M20-223" target="Ho__UGd---1bnU0P5M20-238">
          <mxGeometry relative="1" as="geometry" />
        </mxCell>
        <mxCell id="Ho__UGd---1bnU0P5M20-269" value="FACT_GRANT_APPLICATION_PROCESS" style="shape=table;startSize=30;container=1;collapsible=1;childLayout=tableLayout;fixedRows=1;rowLines=0;fontStyle=1;align=center;resizeLast=1;html=1;strokeColor=default;" vertex="1" parent="1">
          <mxGeometry x="-1460" y="160" width="280" height="230" as="geometry" />
        </mxCell>
        <mxCell id="Ho__UGd---1bnU0P5M20-273" value="" style="shape=tableRow;horizontal=0;startSize=0;swimlaneHead=0;swimlaneBody=0;fillColor=none;collapsible=0;dropTarget=0;points=[[0,0.5],[1,0.5]];portConstraint=eastwest;top=0;left=0;right=0;bottom=0;strokeColor=inherit;swimlaneLine=0;" vertex="1" parent="Ho__UGd---1bnU0P5M20-269">
          <mxGeometry y="30" width="280" height="20" as="geometry" />
        </mxCell>
        <mxCell id="Ho__UGd---1bnU0P5M20-274" value="PK" style="shape=partialRectangle;connectable=0;fillColor=none;top=0;left=0;bottom=0;right=0;fontStyle=1;overflow=hidden;whiteSpace=wrap;html=1;strokeColor=inherit;" vertex="1" parent="Ho__UGd---1bnU0P5M20-273">
          <mxGeometry width="60" height="20" as="geometry">
            <mxRectangle width="60" height="20" as="alternateBounds" />
          </mxGeometry>
        </mxCell>
        <mxCell id="Ho__UGd---1bnU0P5M20-275" value="ApplicationKey" style="shape=partialRectangle;connectable=0;fillColor=none;top=0;left=0;bottom=0;right=0;align=left;spacingLeft=6;fontStyle=5;overflow=hidden;whiteSpace=wrap;html=1;strokeColor=inherit;allowArrows=1;" vertex="1" parent="Ho__UGd---1bnU0P5M20-273">
          <mxGeometry x="60" width="220" height="20" as="geometry">
            <mxRectangle width="220" height="20" as="alternateBounds" />
          </mxGeometry>
        </mxCell>
        <mxCell id="Ho__UGd---1bnU0P5M20-306" value="" style="shape=tableRow;horizontal=0;startSize=0;swimlaneHead=0;swimlaneBody=0;fillColor=none;collapsible=0;dropTarget=0;points=[[0,0.5],[1,0.5]];portConstraint=eastwest;top=0;left=0;right=0;bottom=0;strokeColor=inherit;swimlaneLine=0;" vertex="1" parent="Ho__UGd---1bnU0P5M20-269">
          <mxGeometry y="50" width="280" height="20" as="geometry" />
        </mxCell>
        <mxCell id="Ho__UGd---1bnU0P5M20-307" value="PK,FK" style="shape=partialRectangle;connectable=0;fillColor=none;top=0;left=0;bottom=0;right=0;fontStyle=1;overflow=hidden;whiteSpace=wrap;html=1;strokeColor=inherit;" vertex="1" parent="Ho__UGd---1bnU0P5M20-306">
          <mxGeometry width="60" height="20" as="geometry">
            <mxRectangle width="60" height="20" as="alternateBounds" />
          </mxGeometry>
        </mxCell>
        <mxCell id="Ho__UGd---1bnU0P5M20-308" value="FacultyMemberKey" style="shape=partialRectangle;connectable=0;fillColor=none;top=0;left=0;bottom=0;right=0;align=left;spacingLeft=6;fontStyle=5;overflow=hidden;whiteSpace=wrap;html=1;strokeColor=inherit;allowArrows=1;" vertex="1" parent="Ho__UGd---1bnU0P5M20-306">
          <mxGeometry x="60" width="220" height="20" as="geometry">
            <mxRectangle width="220" height="20" as="alternateBounds" />
          </mxGeometry>
        </mxCell>
        <mxCell id="Ho__UGd---1bnU0P5M20-297" value="" style="shape=tableRow;horizontal=0;startSize=0;swimlaneHead=0;swimlaneBody=0;fillColor=none;collapsible=0;dropTarget=0;points=[[0,0.5],[1,0.5]];portConstraint=eastwest;top=0;left=0;right=0;bottom=0;strokeColor=inherit;swimlaneLine=0;" vertex="1" parent="Ho__UGd---1bnU0P5M20-269">
          <mxGeometry y="70" width="280" height="20" as="geometry" />
        </mxCell>
        <mxCell id="Ho__UGd---1bnU0P5M20-298" value="PK,FK" style="shape=partialRectangle;connectable=0;fillColor=none;top=0;left=0;bottom=0;right=0;fontStyle=1;overflow=hidden;whiteSpace=wrap;html=1;strokeColor=inherit;" vertex="1" parent="Ho__UGd---1bnU0P5M20-297">
          <mxGeometry width="60" height="20" as="geometry">
            <mxRectangle width="60" height="20" as="alternateBounds" />
          </mxGeometry>
        </mxCell>
        <mxCell id="Ho__UGd---1bnU0P5M20-299" value="GrantSourceKey" style="shape=partialRectangle;connectable=0;fillColor=none;top=0;left=0;bottom=0;right=0;align=left;spacingLeft=6;fontStyle=5;overflow=hidden;whiteSpace=wrap;html=1;strokeColor=inherit;allowArrows=1;" vertex="1" parent="Ho__UGd---1bnU0P5M20-297">
          <mxGeometry x="60" width="220" height="20" as="geometry">
            <mxRectangle width="220" height="20" as="alternateBounds" />
          </mxGeometry>
        </mxCell>
        <mxCell id="Ho__UGd---1bnU0P5M20-303" value="" style="shape=tableRow;horizontal=0;startSize=0;swimlaneHead=0;swimlaneBody=0;fillColor=none;collapsible=0;dropTarget=0;points=[[0,0.5],[1,0.5]];portConstraint=eastwest;top=0;left=0;right=0;bottom=0;strokeColor=inherit;swimlaneLine=0;" vertex="1" parent="Ho__UGd---1bnU0P5M20-269">
          <mxGeometry y="90" width="280" height="20" as="geometry" />
        </mxCell>
        <mxCell id="Ho__UGd---1bnU0P5M20-304" value="PK,FK" style="shape=partialRectangle;connectable=0;fillColor=none;top=0;left=0;bottom=0;right=0;fontStyle=1;overflow=hidden;whiteSpace=wrap;html=1;strokeColor=inherit;" vertex="1" parent="Ho__UGd---1bnU0P5M20-303">
          <mxGeometry width="60" height="20" as="geometry">
            <mxRectangle width="60" height="20" as="alternateBounds" />
          </mxGeometry>
        </mxCell>
        <mxCell id="Ho__UGd---1bnU0P5M20-305" value="ApplicationDateKey" style="shape=partialRectangle;connectable=0;fillColor=none;top=0;left=0;bottom=0;right=0;align=left;spacingLeft=6;fontStyle=5;overflow=hidden;whiteSpace=wrap;html=1;strokeColor=inherit;allowArrows=1;" vertex="1" parent="Ho__UGd---1bnU0P5M20-303">
          <mxGeometry x="60" width="220" height="20" as="geometry">
            <mxRectangle width="220" height="20" as="alternateBounds" />
          </mxGeometry>
        </mxCell>
        <mxCell id="Ho__UGd---1bnU0P5M20-300" value="" style="shape=tableRow;horizontal=0;startSize=0;swimlaneHead=0;swimlaneBody=0;fillColor=none;collapsible=0;dropTarget=0;points=[[0,0.5],[1,0.5]];portConstraint=eastwest;top=0;left=0;right=0;bottom=0;strokeColor=inherit;swimlaneLine=0;" vertex="1" parent="Ho__UGd---1bnU0P5M20-269">
          <mxGeometry y="110" width="280" height="20" as="geometry" />
        </mxCell>
        <mxCell id="Ho__UGd---1bnU0P5M20-301" value="PK,FK" style="shape=partialRectangle;connectable=0;fillColor=none;top=0;left=0;bottom=0;right=0;fontStyle=1;overflow=hidden;whiteSpace=wrap;html=1;strokeColor=inherit;" vertex="1" parent="Ho__UGd---1bnU0P5M20-300">
          <mxGeometry width="60" height="20" as="geometry">
            <mxRectangle width="60" height="20" as="alternateBounds" />
          </mxGeometry>
        </mxCell>
        <mxCell id="Ho__UGd---1bnU0P5M20-302" value="InitialApprovalKey" style="shape=partialRectangle;connectable=0;fillColor=none;top=0;left=0;bottom=0;right=0;align=left;spacingLeft=6;fontStyle=5;overflow=hidden;whiteSpace=wrap;html=1;strokeColor=inherit;allowArrows=1;" vertex="1" parent="Ho__UGd---1bnU0P5M20-300">
          <mxGeometry x="60" width="220" height="20" as="geometry">
            <mxRectangle width="220" height="20" as="alternateBounds" />
          </mxGeometry>
        </mxCell>
        <mxCell id="Ho__UGd---1bnU0P5M20-294" value="" style="shape=tableRow;horizontal=0;startSize=0;swimlaneHead=0;swimlaneBody=0;fillColor=none;collapsible=0;dropTarget=0;points=[[0,0.5],[1,0.5]];portConstraint=eastwest;top=0;left=0;right=0;bottom=0;strokeColor=inherit;swimlaneLine=0;" vertex="1" parent="Ho__UGd---1bnU0P5M20-269">
          <mxGeometry y="130" width="280" height="20" as="geometry" />
        </mxCell>
        <mxCell id="Ho__UGd---1bnU0P5M20-295" value="PK,FK" style="shape=partialRectangle;connectable=0;fillColor=none;top=0;left=0;bottom=0;right=0;fontStyle=1;overflow=hidden;whiteSpace=wrap;html=1;strokeColor=inherit;" vertex="1" parent="Ho__UGd---1bnU0P5M20-294">
          <mxGeometry width="60" height="20" as="geometry">
            <mxRectangle width="60" height="20" as="alternateBounds" />
          </mxGeometry>
        </mxCell>
        <mxCell id="Ho__UGd---1bnU0P5M20-296" value="FinalAppriovalKey" style="shape=partialRectangle;connectable=0;fillColor=none;top=0;left=0;bottom=0;right=0;align=left;spacingLeft=6;fontStyle=5;overflow=hidden;whiteSpace=wrap;html=1;strokeColor=inherit;allowArrows=1;" vertex="1" parent="Ho__UGd---1bnU0P5M20-294">
          <mxGeometry x="60" width="220" height="20" as="geometry">
            <mxRectangle width="220" height="20" as="alternateBounds" />
          </mxGeometry>
        </mxCell>
        <mxCell id="Ho__UGd---1bnU0P5M20-276" value="" style="shape=tableRow;horizontal=0;startSize=0;swimlaneHead=0;swimlaneBody=0;fillColor=none;collapsible=0;dropTarget=0;points=[[0,0.5],[1,0.5]];portConstraint=eastwest;top=0;left=0;right=0;bottom=1;strokeColor=inherit;swimlaneLine=0;" vertex="1" parent="Ho__UGd---1bnU0P5M20-269">
          <mxGeometry y="150" width="280" height="20" as="geometry" />
        </mxCell>
        <mxCell id="Ho__UGd---1bnU0P5M20-277" value="PK,FK" style="shape=partialRectangle;connectable=0;fillColor=none;top=0;left=0;bottom=0;right=0;fontStyle=1;overflow=hidden;whiteSpace=wrap;html=1;strokeColor=inherit;" vertex="1" parent="Ho__UGd---1bnU0P5M20-276">
          <mxGeometry width="60" height="20" as="geometry">
            <mxRectangle width="60" height="20" as="alternateBounds" />
          </mxGeometry>
        </mxCell>
        <mxCell id="Ho__UGd---1bnU0P5M20-278" value="FundingReceivedDateKey" style="shape=partialRectangle;connectable=0;fillColor=none;top=0;left=0;bottom=0;right=0;align=left;spacingLeft=6;fontStyle=5;overflow=hidden;whiteSpace=wrap;html=1;strokeColor=inherit;allowArrows=1;" vertex="1" parent="Ho__UGd---1bnU0P5M20-276">
          <mxGeometry x="60" width="220" height="20" as="geometry">
            <mxRectangle width="220" height="20" as="alternateBounds" />
          </mxGeometry>
        </mxCell>
        <mxCell id="Ho__UGd---1bnU0P5M20-279" value="" style="shape=tableRow;horizontal=0;startSize=0;swimlaneHead=0;swimlaneBody=0;fillColor=none;collapsible=0;dropTarget=0;points=[[0,0.5],[1,0.5]];portConstraint=eastwest;top=0;left=0;right=0;bottom=0;" vertex="1" parent="Ho__UGd---1bnU0P5M20-269">
          <mxGeometry y="170" width="280" height="20" as="geometry" />
        </mxCell>
        <mxCell id="Ho__UGd---1bnU0P5M20-280" value="" style="shape=partialRectangle;connectable=0;fillColor=none;top=0;left=0;bottom=0;right=0;editable=1;overflow=hidden;whiteSpace=wrap;html=1;" vertex="1" parent="Ho__UGd---1bnU0P5M20-279">
          <mxGeometry width="60" height="20" as="geometry">
            <mxRectangle width="60" height="20" as="alternateBounds" />
          </mxGeometry>
        </mxCell>
        <mxCell id="Ho__UGd---1bnU0P5M20-281" value="RequestedAmount" style="shape=partialRectangle;connectable=0;fillColor=none;top=0;left=0;bottom=0;right=0;align=left;spacingLeft=6;overflow=hidden;whiteSpace=wrap;html=1;" vertex="1" parent="Ho__UGd---1bnU0P5M20-279">
          <mxGeometry x="60" width="220" height="20" as="geometry">
            <mxRectangle width="220" height="20" as="alternateBounds" />
          </mxGeometry>
        </mxCell>
        <mxCell id="Ho__UGd---1bnU0P5M20-291" value="" style="shape=tableRow;horizontal=0;startSize=0;swimlaneHead=0;swimlaneBody=0;fillColor=none;collapsible=0;dropTarget=0;points=[[0,0.5],[1,0.5]];portConstraint=eastwest;top=0;left=0;right=0;bottom=0;" vertex="1" parent="Ho__UGd---1bnU0P5M20-269">
          <mxGeometry y="190" width="280" height="20" as="geometry" />
        </mxCell>
        <mxCell id="Ho__UGd---1bnU0P5M20-292" value="" style="shape=partialRectangle;connectable=0;fillColor=none;top=0;left=0;bottom=0;right=0;editable=1;overflow=hidden;whiteSpace=wrap;html=1;" vertex="1" parent="Ho__UGd---1bnU0P5M20-291">
          <mxGeometry width="60" height="20" as="geometry">
            <mxRectangle width="60" height="20" as="alternateBounds" />
          </mxGeometry>
        </mxCell>
        <mxCell id="Ho__UGd---1bnU0P5M20-293" value="InitialApprovalAmount" style="shape=partialRectangle;connectable=0;fillColor=none;top=0;left=0;bottom=0;right=0;align=left;spacingLeft=6;overflow=hidden;whiteSpace=wrap;html=1;" vertex="1" parent="Ho__UGd---1bnU0P5M20-291">
          <mxGeometry x="60" width="220" height="20" as="geometry">
            <mxRectangle width="220" height="20" as="alternateBounds" />
          </mxGeometry>
        </mxCell>
        <mxCell id="Ho__UGd---1bnU0P5M20-288" value="" style="shape=tableRow;horizontal=0;startSize=0;swimlaneHead=0;swimlaneBody=0;fillColor=none;collapsible=0;dropTarget=0;points=[[0,0.5],[1,0.5]];portConstraint=eastwest;top=0;left=0;right=0;bottom=0;" vertex="1" parent="Ho__UGd---1bnU0P5M20-269">
          <mxGeometry y="210" width="280" height="20" as="geometry" />
        </mxCell>
        <mxCell id="Ho__UGd---1bnU0P5M20-289" value="" style="shape=partialRectangle;connectable=0;fillColor=none;top=0;left=0;bottom=0;right=0;editable=1;overflow=hidden;whiteSpace=wrap;html=1;" vertex="1" parent="Ho__UGd---1bnU0P5M20-288">
          <mxGeometry width="60" height="20" as="geometry">
            <mxRectangle width="60" height="20" as="alternateBounds" />
          </mxGeometry>
        </mxCell>
        <mxCell id="Ho__UGd---1bnU0P5M20-290" value="FundedAmount" style="shape=partialRectangle;connectable=0;fillColor=none;top=0;left=0;bottom=0;right=0;align=left;spacingLeft=6;overflow=hidden;whiteSpace=wrap;html=1;" vertex="1" parent="Ho__UGd---1bnU0P5M20-288">
          <mxGeometry x="60" width="220" height="20" as="geometry">
            <mxRectangle width="220" height="20" as="alternateBounds" />
          </mxGeometry>
        </mxCell>
        <mxCell id="Ho__UGd---1bnU0P5M20-316" value="DIM_DATE" style="shape=table;startSize=10;container=1;collapsible=1;childLayout=tableLayout;fixedRows=1;rowLines=0;fontStyle=1;align=center;resizeLast=1;html=1;" vertex="1" parent="1">
          <mxGeometry x="-1750" y="270" width="180" height="70" as="geometry" />
        </mxCell>
        <mxCell id="Ho__UGd---1bnU0P5M20-317" value="" style="shape=tableRow;horizontal=0;startSize=0;swimlaneHead=0;swimlaneBody=0;fillColor=none;collapsible=0;dropTarget=0;points=[[0,0.5],[1,0.5]];portConstraint=eastwest;top=0;left=0;right=0;bottom=1;" vertex="1" parent="Ho__UGd---1bnU0P5M20-316">
          <mxGeometry y="10" width="180" height="30" as="geometry" />
        </mxCell>
        <mxCell id="Ho__UGd---1bnU0P5M20-318" value="PK" style="shape=partialRectangle;connectable=0;fillColor=none;top=0;left=0;bottom=0;right=0;fontStyle=1;overflow=hidden;whiteSpace=wrap;html=1;" vertex="1" parent="Ho__UGd---1bnU0P5M20-317">
          <mxGeometry width="50" height="30" as="geometry">
            <mxRectangle width="50" height="30" as="alternateBounds" />
          </mxGeometry>
        </mxCell>
        <mxCell id="Ho__UGd---1bnU0P5M20-319" value="DateKey" style="shape=partialRectangle;connectable=0;fillColor=none;top=0;left=0;bottom=0;right=0;align=left;spacingLeft=6;fontStyle=5;overflow=hidden;whiteSpace=wrap;html=1;" vertex="1" parent="Ho__UGd---1bnU0P5M20-317">
          <mxGeometry x="50" width="130" height="30" as="geometry">
            <mxRectangle width="130" height="30" as="alternateBounds" />
          </mxGeometry>
        </mxCell>
        <mxCell id="Ho__UGd---1bnU0P5M20-320" value="" style="shape=tableRow;horizontal=0;startSize=0;swimlaneHead=0;swimlaneBody=0;fillColor=none;collapsible=0;dropTarget=0;points=[[0,0.5],[1,0.5]];portConstraint=eastwest;top=0;left=0;right=0;bottom=0;" vertex="1" parent="Ho__UGd---1bnU0P5M20-316">
          <mxGeometry y="40" width="180" height="30" as="geometry" />
        </mxCell>
        <mxCell id="Ho__UGd---1bnU0P5M20-321" value="" style="shape=partialRectangle;connectable=0;fillColor=none;top=0;left=0;bottom=0;right=0;editable=1;overflow=hidden;whiteSpace=wrap;html=1;" vertex="1" parent="Ho__UGd---1bnU0P5M20-320">
          <mxGeometry width="50" height="30" as="geometry">
            <mxRectangle width="50" height="30" as="alternateBounds" />
          </mxGeometry>
        </mxCell>
        <mxCell id="Ho__UGd---1bnU0P5M20-322" value="Date" style="shape=partialRectangle;connectable=0;fillColor=none;top=0;left=0;bottom=0;right=0;align=left;spacingLeft=6;overflow=hidden;whiteSpace=wrap;html=1;" vertex="1" parent="Ho__UGd---1bnU0P5M20-320">
          <mxGeometry x="50" width="130" height="30" as="geometry">
            <mxRectangle width="130" height="30" as="alternateBounds" />
          </mxGeometry>
        </mxCell>
        <mxCell id="Ho__UGd---1bnU0P5M20-323" value="DIM_FACULTY_MEMBER" style="shape=table;startSize=30;container=1;collapsible=1;childLayout=tableLayout;fixedRows=1;rowLines=0;fontStyle=1;align=center;resizeLast=1;html=1;" vertex="1" parent="1">
          <mxGeometry x="-1760" y="80" width="180" height="140" as="geometry" />
        </mxCell>
        <mxCell id="Ho__UGd---1bnU0P5M20-324" value="" style="shape=tableRow;horizontal=0;startSize=0;swimlaneHead=0;swimlaneBody=0;fillColor=none;collapsible=0;dropTarget=0;points=[[0,0.5],[1,0.5]];portConstraint=eastwest;top=0;left=0;right=0;bottom=1;" vertex="1" parent="Ho__UGd---1bnU0P5M20-323">
          <mxGeometry y="30" width="180" height="30" as="geometry" />
        </mxCell>
        <mxCell id="Ho__UGd---1bnU0P5M20-325" value="PK" style="shape=partialRectangle;connectable=0;fillColor=none;top=0;left=0;bottom=0;right=0;fontStyle=1;overflow=hidden;whiteSpace=wrap;html=1;" vertex="1" parent="Ho__UGd---1bnU0P5M20-324">
          <mxGeometry width="50" height="30" as="geometry">
            <mxRectangle width="50" height="30" as="alternateBounds" />
          </mxGeometry>
        </mxCell>
        <mxCell id="Ho__UGd---1bnU0P5M20-326" value="FacultyMemberKey" style="shape=partialRectangle;connectable=0;fillColor=none;top=0;left=0;bottom=0;right=0;align=left;spacingLeft=6;fontStyle=5;overflow=hidden;whiteSpace=wrap;html=1;" vertex="1" parent="Ho__UGd---1bnU0P5M20-324">
          <mxGeometry x="50" width="130" height="30" as="geometry">
            <mxRectangle width="130" height="30" as="alternateBounds" />
          </mxGeometry>
        </mxCell>
        <mxCell id="Ho__UGd---1bnU0P5M20-327" value="" style="shape=tableRow;horizontal=0;startSize=0;swimlaneHead=0;swimlaneBody=0;fillColor=none;collapsible=0;dropTarget=0;points=[[0,0.5],[1,0.5]];portConstraint=eastwest;top=0;left=0;right=0;bottom=0;" vertex="1" parent="Ho__UGd---1bnU0P5M20-323">
          <mxGeometry y="60" width="180" height="20" as="geometry" />
        </mxCell>
        <mxCell id="Ho__UGd---1bnU0P5M20-328" value="" style="shape=partialRectangle;connectable=0;fillColor=none;top=0;left=0;bottom=0;right=0;editable=1;overflow=hidden;whiteSpace=wrap;html=1;" vertex="1" parent="Ho__UGd---1bnU0P5M20-327">
          <mxGeometry width="50" height="20" as="geometry">
            <mxRectangle width="50" height="20" as="alternateBounds" />
          </mxGeometry>
        </mxCell>
        <mxCell id="Ho__UGd---1bnU0P5M20-329" value="FacultyMemberID" style="shape=partialRectangle;connectable=0;fillColor=none;top=0;left=0;bottom=0;right=0;align=left;spacingLeft=6;overflow=hidden;whiteSpace=wrap;html=1;" vertex="1" parent="Ho__UGd---1bnU0P5M20-327">
          <mxGeometry x="50" width="130" height="20" as="geometry">
            <mxRectangle width="130" height="20" as="alternateBounds" />
          </mxGeometry>
        </mxCell>
        <mxCell id="Ho__UGd---1bnU0P5M20-330" value="" style="shape=tableRow;horizontal=0;startSize=0;swimlaneHead=0;swimlaneBody=0;fillColor=none;collapsible=0;dropTarget=0;points=[[0,0.5],[1,0.5]];portConstraint=eastwest;top=0;left=0;right=0;bottom=0;" vertex="1" parent="Ho__UGd---1bnU0P5M20-323">
          <mxGeometry y="80" width="180" height="20" as="geometry" />
        </mxCell>
        <mxCell id="Ho__UGd---1bnU0P5M20-331" value="" style="shape=partialRectangle;connectable=0;fillColor=none;top=0;left=0;bottom=0;right=0;editable=1;overflow=hidden;whiteSpace=wrap;html=1;" vertex="1" parent="Ho__UGd---1bnU0P5M20-330">
          <mxGeometry width="50" height="20" as="geometry">
            <mxRectangle width="50" height="20" as="alternateBounds" />
          </mxGeometry>
        </mxCell>
        <mxCell id="Ho__UGd---1bnU0P5M20-332" value="FirstName" style="shape=partialRectangle;connectable=0;fillColor=none;top=0;left=0;bottom=0;right=0;align=left;spacingLeft=6;overflow=hidden;whiteSpace=wrap;html=1;" vertex="1" parent="Ho__UGd---1bnU0P5M20-330">
          <mxGeometry x="50" width="130" height="20" as="geometry">
            <mxRectangle width="130" height="20" as="alternateBounds" />
          </mxGeometry>
        </mxCell>
        <mxCell id="Ho__UGd---1bnU0P5M20-333" value="" style="shape=tableRow;horizontal=0;startSize=0;swimlaneHead=0;swimlaneBody=0;fillColor=none;collapsible=0;dropTarget=0;points=[[0,0.5],[1,0.5]];portConstraint=eastwest;top=0;left=0;right=0;bottom=0;" vertex="1" parent="Ho__UGd---1bnU0P5M20-323">
          <mxGeometry y="100" width="180" height="20" as="geometry" />
        </mxCell>
        <mxCell id="Ho__UGd---1bnU0P5M20-334" value="" style="shape=partialRectangle;connectable=0;fillColor=none;top=0;left=0;bottom=0;right=0;editable=1;overflow=hidden;whiteSpace=wrap;html=1;" vertex="1" parent="Ho__UGd---1bnU0P5M20-333">
          <mxGeometry width="50" height="20" as="geometry">
            <mxRectangle width="50" height="20" as="alternateBounds" />
          </mxGeometry>
        </mxCell>
        <mxCell id="Ho__UGd---1bnU0P5M20-335" value="LastName" style="shape=partialRectangle;connectable=0;fillColor=none;top=0;left=0;bottom=0;right=0;align=left;spacingLeft=6;overflow=hidden;whiteSpace=wrap;html=1;" vertex="1" parent="Ho__UGd---1bnU0P5M20-333">
          <mxGeometry x="50" width="130" height="20" as="geometry">
            <mxRectangle width="130" height="20" as="alternateBounds" />
          </mxGeometry>
        </mxCell>
        <mxCell id="Ho__UGd---1bnU0P5M20-336" value="" style="shape=tableRow;horizontal=0;startSize=0;swimlaneHead=0;swimlaneBody=0;fillColor=none;collapsible=0;dropTarget=0;points=[[0,0.5],[1,0.5]];portConstraint=eastwest;top=0;left=0;right=0;bottom=0;" vertex="1" parent="Ho__UGd---1bnU0P5M20-323">
          <mxGeometry y="120" width="180" height="20" as="geometry" />
        </mxCell>
        <mxCell id="Ho__UGd---1bnU0P5M20-337" value="" style="shape=partialRectangle;connectable=0;fillColor=none;top=0;left=0;bottom=0;right=0;editable=1;overflow=hidden;whiteSpace=wrap;html=1;" vertex="1" parent="Ho__UGd---1bnU0P5M20-336">
          <mxGeometry width="50" height="20" as="geometry">
            <mxRectangle width="50" height="20" as="alternateBounds" />
          </mxGeometry>
        </mxCell>
        <mxCell id="Ho__UGd---1bnU0P5M20-338" value="Department" style="shape=partialRectangle;connectable=0;fillColor=none;top=0;left=0;bottom=0;right=0;align=left;spacingLeft=6;overflow=hidden;whiteSpace=wrap;html=1;" vertex="1" parent="Ho__UGd---1bnU0P5M20-336">
          <mxGeometry x="50" width="130" height="20" as="geometry">
            <mxRectangle width="130" height="20" as="alternateBounds" />
          </mxGeometry>
        </mxCell>
        <mxCell id="Ho__UGd---1bnU0P5M20-339" value="DIM_GRANT_SOURCE" style="shape=table;startSize=30;container=1;collapsible=1;childLayout=tableLayout;fixedRows=1;rowLines=0;fontStyle=1;align=center;resizeLast=1;html=1;" vertex="1" parent="1">
          <mxGeometry x="-1120" y="205" width="180" height="140" as="geometry" />
        </mxCell>
        <mxCell id="Ho__UGd---1bnU0P5M20-340" value="" style="shape=tableRow;horizontal=0;startSize=0;swimlaneHead=0;swimlaneBody=0;fillColor=none;collapsible=0;dropTarget=0;points=[[0,0.5],[1,0.5]];portConstraint=eastwest;top=0;left=0;right=0;bottom=1;" vertex="1" parent="Ho__UGd---1bnU0P5M20-339">
          <mxGeometry y="30" width="180" height="30" as="geometry" />
        </mxCell>
        <mxCell id="Ho__UGd---1bnU0P5M20-341" value="PK" style="shape=partialRectangle;connectable=0;fillColor=none;top=0;left=0;bottom=0;right=0;fontStyle=1;overflow=hidden;whiteSpace=wrap;html=1;" vertex="1" parent="Ho__UGd---1bnU0P5M20-340">
          <mxGeometry width="50" height="30" as="geometry">
            <mxRectangle width="50" height="30" as="alternateBounds" />
          </mxGeometry>
        </mxCell>
        <mxCell id="Ho__UGd---1bnU0P5M20-342" value="GrandSourceKey" style="shape=partialRectangle;connectable=0;fillColor=none;top=0;left=0;bottom=0;right=0;align=left;spacingLeft=6;fontStyle=5;overflow=hidden;whiteSpace=wrap;html=1;" vertex="1" parent="Ho__UGd---1bnU0P5M20-340">
          <mxGeometry x="50" width="130" height="30" as="geometry">
            <mxRectangle width="130" height="30" as="alternateBounds" />
          </mxGeometry>
        </mxCell>
        <mxCell id="Ho__UGd---1bnU0P5M20-343" value="" style="shape=tableRow;horizontal=0;startSize=0;swimlaneHead=0;swimlaneBody=0;fillColor=none;collapsible=0;dropTarget=0;points=[[0,0.5],[1,0.5]];portConstraint=eastwest;top=0;left=0;right=0;bottom=0;" vertex="1" parent="Ho__UGd---1bnU0P5M20-339">
          <mxGeometry y="60" width="180" height="20" as="geometry" />
        </mxCell>
        <mxCell id="Ho__UGd---1bnU0P5M20-344" value="" style="shape=partialRectangle;connectable=0;fillColor=none;top=0;left=0;bottom=0;right=0;editable=1;overflow=hidden;whiteSpace=wrap;html=1;" vertex="1" parent="Ho__UGd---1bnU0P5M20-343">
          <mxGeometry width="50" height="20" as="geometry">
            <mxRectangle width="50" height="20" as="alternateBounds" />
          </mxGeometry>
        </mxCell>
        <mxCell id="Ho__UGd---1bnU0P5M20-345" value="GrandSourceID" style="shape=partialRectangle;connectable=0;fillColor=none;top=0;left=0;bottom=0;right=0;align=left;spacingLeft=6;overflow=hidden;whiteSpace=wrap;html=1;" vertex="1" parent="Ho__UGd---1bnU0P5M20-343">
          <mxGeometry x="50" width="130" height="20" as="geometry">
            <mxRectangle width="130" height="20" as="alternateBounds" />
          </mxGeometry>
        </mxCell>
        <mxCell id="Ho__UGd---1bnU0P5M20-346" value="" style="shape=tableRow;horizontal=0;startSize=0;swimlaneHead=0;swimlaneBody=0;fillColor=none;collapsible=0;dropTarget=0;points=[[0,0.5],[1,0.5]];portConstraint=eastwest;top=0;left=0;right=0;bottom=0;" vertex="1" parent="Ho__UGd---1bnU0P5M20-339">
          <mxGeometry y="80" width="180" height="20" as="geometry" />
        </mxCell>
        <mxCell id="Ho__UGd---1bnU0P5M20-347" value="" style="shape=partialRectangle;connectable=0;fillColor=none;top=0;left=0;bottom=0;right=0;editable=1;overflow=hidden;whiteSpace=wrap;html=1;" vertex="1" parent="Ho__UGd---1bnU0P5M20-346">
          <mxGeometry width="50" height="20" as="geometry">
            <mxRectangle width="50" height="20" as="alternateBounds" />
          </mxGeometry>
        </mxCell>
        <mxCell id="Ho__UGd---1bnU0P5M20-348" value="Name" style="shape=partialRectangle;connectable=0;fillColor=none;top=0;left=0;bottom=0;right=0;align=left;spacingLeft=6;overflow=hidden;whiteSpace=wrap;html=1;" vertex="1" parent="Ho__UGd---1bnU0P5M20-346">
          <mxGeometry x="50" width="130" height="20" as="geometry">
            <mxRectangle width="130" height="20" as="alternateBounds" />
          </mxGeometry>
        </mxCell>
        <mxCell id="Ho__UGd---1bnU0P5M20-349" value="" style="shape=tableRow;horizontal=0;startSize=0;swimlaneHead=0;swimlaneBody=0;fillColor=none;collapsible=0;dropTarget=0;points=[[0,0.5],[1,0.5]];portConstraint=eastwest;top=0;left=0;right=0;bottom=0;" vertex="1" parent="Ho__UGd---1bnU0P5M20-339">
          <mxGeometry y="100" width="180" height="20" as="geometry" />
        </mxCell>
        <mxCell id="Ho__UGd---1bnU0P5M20-350" value="" style="shape=partialRectangle;connectable=0;fillColor=none;top=0;left=0;bottom=0;right=0;editable=1;overflow=hidden;whiteSpace=wrap;html=1;" vertex="1" parent="Ho__UGd---1bnU0P5M20-349">
          <mxGeometry width="50" height="20" as="geometry">
            <mxRectangle width="50" height="20" as="alternateBounds" />
          </mxGeometry>
        </mxCell>
        <mxCell id="Ho__UGd---1bnU0P5M20-351" value="Phone" style="shape=partialRectangle;connectable=0;fillColor=none;top=0;left=0;bottom=0;right=0;align=left;spacingLeft=6;overflow=hidden;whiteSpace=wrap;html=1;" vertex="1" parent="Ho__UGd---1bnU0P5M20-349">
          <mxGeometry x="50" width="130" height="20" as="geometry">
            <mxRectangle width="130" height="20" as="alternateBounds" />
          </mxGeometry>
        </mxCell>
        <mxCell id="Ho__UGd---1bnU0P5M20-352" value="" style="shape=tableRow;horizontal=0;startSize=0;swimlaneHead=0;swimlaneBody=0;fillColor=none;collapsible=0;dropTarget=0;points=[[0,0.5],[1,0.5]];portConstraint=eastwest;top=0;left=0;right=0;bottom=0;" vertex="1" parent="Ho__UGd---1bnU0P5M20-339">
          <mxGeometry y="120" width="180" height="20" as="geometry" />
        </mxCell>
        <mxCell id="Ho__UGd---1bnU0P5M20-353" value="" style="shape=partialRectangle;connectable=0;fillColor=none;top=0;left=0;bottom=0;right=0;editable=1;overflow=hidden;whiteSpace=wrap;html=1;" vertex="1" parent="Ho__UGd---1bnU0P5M20-352">
          <mxGeometry width="50" height="20" as="geometry">
            <mxRectangle width="50" height="20" as="alternateBounds" />
          </mxGeometry>
        </mxCell>
        <mxCell id="Ho__UGd---1bnU0P5M20-354" value="Address" style="shape=partialRectangle;connectable=0;fillColor=none;top=0;left=0;bottom=0;right=0;align=left;spacingLeft=6;overflow=hidden;whiteSpace=wrap;html=1;" vertex="1" parent="Ho__UGd---1bnU0P5M20-352">
          <mxGeometry x="50" width="130" height="20" as="geometry">
            <mxRectangle width="130" height="20" as="alternateBounds" />
          </mxGeometry>
        </mxCell>
        <mxCell id="Ho__UGd---1bnU0P5M20-355" style="edgeStyle=none;rounded=0;orthogonalLoop=1;jettySize=auto;html=1;entryX=0;entryY=0.5;entryDx=0;entryDy=0;exitX=1;exitY=0.5;exitDx=0;exitDy=0;endArrow=none;endFill=0;" edge="1" parent="1" source="Ho__UGd---1bnU0P5M20-317" target="Ho__UGd---1bnU0P5M20-303">
          <mxGeometry relative="1" as="geometry" />
        </mxCell>
        <mxCell id="Ho__UGd---1bnU0P5M20-356" style="edgeStyle=none;rounded=0;orthogonalLoop=1;jettySize=auto;html=1;entryX=1;entryY=0.5;entryDx=0;entryDy=0;endArrow=none;endFill=0;exitX=0;exitY=0.5;exitDx=0;exitDy=0;" edge="1" parent="1" source="Ho__UGd---1bnU0P5M20-340" target="Ho__UGd---1bnU0P5M20-297">
          <mxGeometry relative="1" as="geometry" />
        </mxCell>
        <mxCell id="Ho__UGd---1bnU0P5M20-357" style="edgeStyle=none;rounded=0;orthogonalLoop=1;jettySize=auto;html=1;entryX=1;entryY=0.5;entryDx=0;entryDy=0;endArrow=none;endFill=0;exitX=0;exitY=0.5;exitDx=0;exitDy=0;" edge="1" parent="1" source="Ho__UGd---1bnU0P5M20-306" target="Ho__UGd---1bnU0P5M20-324">
          <mxGeometry relative="1" as="geometry" />
        </mxCell>
        <mxCell id="Ho__UGd---1bnU0P5M20-358" style="edgeStyle=none;rounded=0;orthogonalLoop=1;jettySize=auto;html=1;entryX=0;entryY=0.5;entryDx=0;entryDy=0;exitX=1;exitY=0.5;exitDx=0;exitDy=0;endArrow=none;endFill=0;" edge="1" parent="1" source="Ho__UGd---1bnU0P5M20-317" target="Ho__UGd---1bnU0P5M20-300">
          <mxGeometry relative="1" as="geometry">
            <mxPoint x="-1560" y="305" as="sourcePoint" />
            <mxPoint x="-1450" y="270" as="targetPoint" />
          </mxGeometry>
        </mxCell>
        <mxCell id="Ho__UGd---1bnU0P5M20-359" style="edgeStyle=none;rounded=0;orthogonalLoop=1;jettySize=auto;html=1;entryX=-0.006;entryY=0.283;entryDx=0;entryDy=0;exitX=1;exitY=0.5;exitDx=0;exitDy=0;endArrow=none;endFill=0;entryPerimeter=0;" edge="1" parent="1" source="Ho__UGd---1bnU0P5M20-317" target="Ho__UGd---1bnU0P5M20-294">
          <mxGeometry relative="1" as="geometry">
            <mxPoint x="-1550" y="315" as="sourcePoint" />
            <mxPoint x="-1440" y="280" as="targetPoint" />
          </mxGeometry>
        </mxCell>
        <mxCell id="Ho__UGd---1bnU0P5M20-360" style="edgeStyle=none;rounded=0;orthogonalLoop=1;jettySize=auto;html=1;entryX=0;entryY=0.5;entryDx=0;entryDy=0;exitX=1;exitY=0.5;exitDx=0;exitDy=0;endArrow=none;endFill=0;" edge="1" parent="1" source="Ho__UGd---1bnU0P5M20-317" target="Ho__UGd---1bnU0P5M20-276">
          <mxGeometry relative="1" as="geometry">
            <mxPoint x="-1540" y="325" as="sourcePoint" />
            <mxPoint x="-1430" y="290" as="targetPoint" />
          </mxGeometry>
        </mxCell>
      </root>
    </mxGraphModel>
  </diagram>
</mxfile>
